<svg id="Layer_1" data-name="Layer 1" xmlns="http://www.w3.org/2000/svg" viewBox="0 0 512 512"><defs><style>.cls-2{fill:#fadb5f}</style></defs><path d="M370.42 367.66l1.76-1.83 1.1-1.18c.55-.6 1.1-1.19 1.64-1.79l1.11-1.25c.52-.6 1-1.19 1.55-1.79l1.1-1.3 1.5-1.82 1.07-1.33 1.46-1.87 1-1.33c.49-.65 1-1.31 1.46-2l.94-1.28c.51-.72 1-1.45 1.52-2.18l.79-1.14q1-1.44 1.92-2.91l.31-.47c.73-1.14 1.44-2.28 2.14-3.44.22-.35.42-.71.63-1.07.48-.8 1-1.61 1.43-2.42l.77-1.38 1.2-2.17c.27-.5.53-1 .79-1.51.37-.7.74-1.4 1.09-2.1.27-.52.53-1.05.79-1.58.34-.69.68-1.39 1-2.09q.39-.81.75-1.62c.33-.7.65-1.4 1-2.11l.72-1.64.9-2.15c.23-.55.45-1.09.67-1.64.3-.74.58-1.49.87-2.24l.61-1.59c.29-.8.57-1.6.85-2.4.18-.49.36-1 .53-1.48.31-.93.62-1.87.92-2.81l.36-1.11c.41-1.32.8-2.63 1.18-4l.24-.91c.29-1 .57-2.06.83-3.1.13-.49.24-1 .36-1.48.21-.86.42-1.71.62-2.57l.36-1.67c.18-.81.35-1.61.51-2.42a167.815 167.815 0 00.77-4.14c.11-.6.2-1.2.3-1.8.13-.79.25-1.59.37-2.39.08-.6.17-1.21.25-1.81.11-.8.21-1.61.3-2.42.07-.6.15-1.2.21-1.81.09-.82.16-1.65.24-2.48.06-.59.11-1.18.16-1.77.07-.87.12-1.73.18-2.6 0-.56.07-1.12.11-1.69.05-.95.08-1.91.12-2.88 0-.47 0-.95.05-1.42 0-1.44.06-2.89.06-4.34A159.85 159.85 0 00256 96.12 159.72 159.72 0 0096.12 256c0 1.45 0 2.89.06 4.34 0 .47 0 1 .06 1.42 0 1 .06 1.93.11 2.88 0 .57.08 1.13.11 1.69.06.87.11 1.73.18 2.6 0 .59.11 1.18.16 1.77.08.83.15 1.66.24 2.48l.21 1.81a112.603 112.603 0 00.56 4.23c.11.8.23 1.6.36 2.39l.3 1.8a167.815 167.815 0 00.77 4.14c.16.81.34 1.62.51 2.42l.36 1.67c.2.86.41 1.71.62 2.57.12.49.23 1 .36 1.48.26 1 .54 2.07.83 3.1.08.3.16.61.25.91.37 1.33.76 2.64 1.17 4 .12.37.25.74.36 1.11.3.94.61 1.88.93 2.81.17.5.34 1 .52 1.48.28.8.56 1.6.85 2.4l.61 1.59c.29.75.57 1.5.87 2.24.22.55.45 1.09.67 1.64.3.72.6 1.44.91 2.15.23.55.47 1.1.71 1.64.32.71.63 1.41 1 2.11l.75 1.62c.33.7.67 1.4 1 2.09.26.53.51 1 .78 1.58.35.7.72 1.4 1.09 2.1.26.5.52 1 .79 1.51l1.2 2.17.77 1.38c.47.81 1 1.62 1.43 2.42.21.36.41.72.63 1.07.7 1.16 1.41 2.31 2.14 3.44l.31.47q.94 1.47 1.92 2.91l.79 1.14c.51.73 1 1.46 1.52 2.18l.94 1.28c.49.66 1 1.33 1.46 2l1 1.33 1.46 1.87 1.07 1.33 1.5 1.82 1.1 1.3c.51.6 1 1.19 1.55 1.79l1.11 1.25c.54.6 1.09 1.19 1.64 1.79l1.1 1.18 1.76 1.83 1 1.07c.66.67 1.34 1.33 2 2l.85.83c1 .93 1.95 1.84 2.94 2.74 1 .92 2 1.83 3.07 2.72l.07.07a159.88 159.88 0 0023 16.55l.1.08.61.34c1.08.63 2.16 1.25 3.25 1.85.29.16.57.33.86.48 1.37.75 2.74 1.47 4.13 2.18l1 .48c1.09.55 2.19 1.09 3.3 1.61l1.28.6c1.17.54 2.35 1.06 3.54 1.58l.79.34c1.44.61 2.9 1.21 4.36 1.78l1.1.41c1.13.44 2.27.86 3.42 1.27l1.33.47c1.28.44 2.55.86 3.84 1.27l.7.23c1.51.47 3 .92 4.55 1.35l1.22.32c1.17.32 2.34.63 3.52.92l1.39.34c1.37.32 2.76.63 4.15.92l.55.12c1.57.33 3.15.62 4.73.9l1.32.21c1.2.2 2.4.39 3.61.56l1.43.2c1.51.2 3 .39 4.53.54h.33c1.62.17 3.25.3 4.88.42l1.41.08c1.23.08 2.46.14 3.69.19l1.45.06c1.66.05 3.32.08 5 .08 1.66 0 3.32 0 5-.08l1.45-.06c1.24-.05 2.47-.11 3.7-.19l1.4-.08c1.64-.12 3.27-.25 4.89-.42h.32c1.52-.15 3-.34 4.53-.54l1.43-.2c1.21-.17 2.42-.36 3.62-.55l1.31-.22c1.58-.28 3.16-.57 4.73-.9.19 0 .37-.08.56-.12 1.39-.29 2.77-.6 4.15-.92l1.39-.34c1.18-.29 2.35-.6 3.52-.92l1.21-.32q2.3-.64 4.56-1.35l.7-.23c1.28-.41 2.56-.83 3.83-1.27l1.34-.47 3.48-1.3 1.1-.42q2.19-.86 4.35-1.78l.8-.35c1.19-.51 2.37-1 3.54-1.57l1.28-.6c1.1-.52 2.2-1.06 3.3-1.61l1-.48c1.38-.71 2.76-1.43 4.12-2.18l.87-.48c1.09-.6 2.17-1.22 3.24-1.85.21-.11.41-.23.61-.35l.11-.07a161 161 0 0023-16.55l.08-.07c1-.89 2.06-1.8 3.07-2.72 1-.9 2-1.81 2.93-2.74l.86-.83 2-2z" fill="#f7c948"/><path class="cls-2" d="M351.66 127.88A159.16 159.16 0 00256 96.12a161.05 161.05 0 00-28 2.46 175 175 0 00-57.17 129.6c0 88.48 65.49 161.65 150.64 173.73l1.41-.63 1.28-.6c1.11-.52 2.21-1.06 3.3-1.61l1-.48c1.39-.71 2.76-1.43 4.13-2.18.29-.15.57-.32.86-.48 1.09-.6 2.17-1.22 3.25-1.85l.61-.35.1-.07a159.88 159.88 0 0023-16.55l.08-.07c1-.89 2.06-1.8 3.07-2.72 1-.9 2-1.81 2.94-2.74.28-.28.56-.56.85-.83l2-2 1-1.07q.9-.92 1.77-1.83l1.1-1.18c.55-.6 1.1-1.19 1.64-1.79l1.14-1.28c.52-.59 1-1.18 1.55-1.79.37-.43.74-.86 1.1-1.3l1.5-1.81 1.07-1.33 1.46-1.87 1-1.33c.49-.65 1-1.31 1.46-2 .31-.42.63-.85.93-1.28.52-.72 1-1.45 1.53-2.18l.79-1.14q1-1.44 1.92-2.91l.31-.47c.73-1.14 1.44-2.28 2.14-3.44.22-.35.42-.71.63-1.07.48-.8 1-1.61 1.43-2.42l.77-1.38 1.2-2.17c.27-.5.53-1 .79-1.51.37-.7.73-1.4 1.09-2.1.27-.53.53-1.05.78-1.58.35-.69.69-1.39 1-2.09.25-.54.51-1.08.75-1.62.33-.7.64-1.4 1-2.11.24-.55.48-1.09.71-1.64.31-.71.61-1.43.91-2.16.22-.54.45-1.08.67-1.63l.87-2.24.61-1.59c.29-.8.57-1.6.85-2.4.18-.5.36-1 .52-1.48.32-.93.62-1.87.93-2.81.11-.38.24-.74.36-1.11.41-1.32.8-2.63 1.18-4l.24-.91c.29-1 .57-2.06.83-3.1.13-.49.24-1 .36-1.49.21-.85.42-1.7.62-2.56l.36-1.67c.17-.81.35-1.61.51-2.42.12-.59.23-1.17.34-1.76.15-.79.29-1.59.43-2.38.11-.6.2-1.2.3-1.8.13-.79.25-1.59.37-2.39.08-.6.17-1.21.25-1.81.11-.81.21-1.61.3-2.42l.21-1.81c.09-.82.16-1.65.24-2.48.05-.59.11-1.18.16-1.78.07-.86.12-1.72.18-2.59 0-.56.07-1.12.11-1.69.05-.95.08-1.92.12-2.88 0-.47 0-.95.05-1.43 0-1.44.06-2.88.06-4.33a159.46 159.46 0 00-64.22-128.12z"/><path d="M376.67 251.85v-1q-.18-4.12-.63-8.18c0-.34-.07-.67-.11-1q-.48-4-1.23-8l-.18-1c-.52-2.63-1.12-5.24-1.8-7.81-.09-.31-.17-.62-.26-.93q-1.05-3.85-2.36-7.6c-.1-.3-.21-.59-.31-.89q-1.33-3.74-2.9-7.35c-.12-.29-.25-.57-.37-.85-1.06-2.4-2.2-4.77-3.42-7.09l-.42-.81q-1.84-3.47-3.9-6.78l-.5-.79a121 121 0 00-20.84-24.93l-.09-.07-1-.89-1.11-1-1.05-.89c-.36-.31-.73-.63-1.1-.93l-1.08-.88-1.1-.9-1.11-.86-1.12-.86-1.13-.84-1.14-.83-1.16-.81-1.16-.81-1.16-.78c-.39-.27-.79-.53-1.19-.78l-1.18-.76-1.21-.76-1.19-.73-1.24-.73-1.2-.7-1.27-.71-1.21-.66c-.43-.24-.87-.46-1.31-.69l-1.2-.63-1.37-.68-1.18-.58-1.47-.69-1.11-.51-1.87-.82-.74-.32c-.86-.37-1.74-.72-2.61-1.07l-1-.39c-.56-.21-1.11-.43-1.67-.63l-1.14-.41-1.56-.55-1.22-.4-1.52-.49-1.27-.4-1.51-.45-1.28-.35-1.51-.41c-.43-.12-.87-.23-1.31-.33s-1-.26-1.52-.37l-1.31-.31-1.54-.33-1.33-.27-1.54-.3-1.34-.24-1.57-.26-1.34-.21-1.6-.22-1.32-.18-1.64-.18-1.32-.14-1.68-.15-1.28-.11c-.6-.05-1.19-.08-1.78-.11l-1.28-.08-2-.07h-8l-2 .07-1.21.08-1.77.11-1.29.11-1.68.15-1.32.14-1.64.18-1.32.18-1.6.22-1.34.21-1.57.26-1.33.24-1.55.3-1.33.27-1.53.33-1.32.31c-.51.11-1 .24-1.52.37s-.87.21-1.31.33l-1.51.41-1.28.35-1.51.45-1.26.39-1.52.49-1.22.4-1.56.55-1.15.41-1.66.63-1 .39c-.88.35-1.75.7-2.61 1.07l-.74.32-1.88.82-1.1.51-1.47.69-1.19.58-1.36.68-1.21.63-1.3.69-1.21.66-1.27.71-1.2.7-1.24.73-1.19.73-1.21.76-1.18.76c-.4.25-.8.52-1.19.78l-1.17.78-1.16.81-1.15.81-1.14.83-1.13.84-1.12.86-1.11.86-1.11.9c-.36.29-.72.58-1.07.88s-.74.62-1.11.93l-1 .89-1.11 1-1 .88-.09.08a121 121 0 00-20.83 24.93l-.5.79q-2.06 3.31-3.9 6.78c-.14.27-.28.54-.43.81-1.21 2.32-2.35 4.69-3.41 7.09-.13.28-.25.56-.37.85q-1.56 3.61-2.9 7.35c-.11.3-.21.59-.31.89q-1.31 3.75-2.37 7.6c-.08.31-.17.62-.25.93q-1 3.85-1.8 7.81c-.06.32-.13.64-.19 1q-.73 4-1.22 8c0 .33-.08.66-.11 1q-.45 4.05-.63 8.18v1c0 1.38-.08 2.76-.08 4.15a122.88 122.88 0 00.63 12.35c.21 2 .46 4 .77 6a118.79 118.79 0 003.19 14.67A120.79 120.79 0 00256 376.75a120.81 120.81 0 00116.17-87.69 122.57 122.57 0 003.19-14.67q.45-3 .77-6a122.89 122.89 0 00.62-12.35c.01-1.43-.03-2.81-.08-4.19z" fill="#de911d"/><path d="M376.64 250.82c-.12-2.76-.33-5.48-.63-8.18 0-.34-.07-.67-.11-1q-.48-4-1.23-8l-.18-1c-.52-2.63-1.12-5.24-1.8-7.81-.09-.31-.17-.62-.26-.93q-1.05-3.85-2.36-7.6c-.1-.3-.21-.59-.31-.89q-1.33-3.74-2.9-7.35c-.12-.29-.25-.57-.37-.85-1.06-2.4-2.2-4.77-3.42-7.09l-.42-.81q-1.84-3.47-3.9-6.78l-.5-.79a121 121 0 00-20.84-24.93l-.09-.07-1-.89-1.11-1-1.05-.89c-.36-.31-.73-.63-1.1-.93l-1.08-.88-1.1-.9-1.11-.86-1.12-.86-1.13-.84-1.14-.83-1.16-.81-1.16-.81-1.16-.78c-.39-.27-.79-.53-1.19-.78l-1.18-.76-1.21-.76-1.19-.73-1.24-.73-1.2-.7-1.27-.71-1.21-.66c-.43-.24-.87-.46-1.31-.69l-1.2-.63-1.37-.68-1.18-.58-1.47-.69-1.11-.51-1.87-.82-.74-.32c-.86-.37-1.74-.72-2.61-1.07l-1-.39c-.56-.21-1.11-.43-1.67-.63l-1.14-.41-1.56-.55-1.22-.4-1.52-.49-1.24-.37-1.51-.45-1.28-.35-1.51-.41c-.43-.12-.87-.23-1.31-.33s-1-.26-1.52-.37l-1.31-.31-1.54-.33-1.33-.27-1.54-.3-1.34-.24-1.57-.26-1.34-.21-1.6-.22-1.32-.18-1.64-.18-1.32-.14-1.68-.15-1.28-.11c-.6-.05-1.19-.08-1.78-.11l-1.28-.08-2-.07h-8l-2 .07-1.21.08-1.77.11-1.29.11-1.68.15-1.32.14-1.64.18-1.32.18-1.6.22-1.34.21-1.57.26-1.33.24-1.55.3-1.33.27-1.53.33-1.32.31c-.51.11-1 .24-1.52.37s-.87.21-1.31.33l-1.51.41-1.28.35-1.51.45-1.26.39-1.52.49-1.22.4-1.56.55-1.15.41-1.66.63-1 .39c-.88.35-1.75.7-2.61 1.07l-.74.32-1.88.82-1.1.51-1.47.69-1.19.58-1.36.68-1.21.63-1.3.69-1.21.66-1.27.71-1.2.7-1.24.73-1.19.73-1.21.76-1.18.76c-.4.25-.8.52-1.19.78l-1.17.78-1.16.81-1.15.81-.25.19a175.61 175.61 0 0067.39 218.62c1.08 0 2.16.07 3.25.07a120.8 120.8 0 00116.17-87.7 118.4 118.4 0 003.19-14.67q.45-3 .77-6a122.89 122.89 0 00.62-12.35c0-1.39 0-2.77-.08-4.15z" fill="#f0b429"/><path class="cls-2" d="M256 66.86a8.61 8.61 0 01-8.6-8.61V8.6a8.61 8.61 0 0117.21 0v49.65a8.61 8.61 0 01-8.61 8.61zM256 512a8.6 8.6 0 01-8.6-8.61v-49.64a8.61 8.61 0 1117.21 0v49.64A8.61 8.61 0 01256 512zM157.14 93.35a8.59 8.59 0 01-7.46-4.3l-24.83-43a8.6 8.6 0 0114.9-8.6l24.83 43a8.6 8.6 0 01-7.44 12.91zm222.57 385.51a8.6 8.6 0 01-7.46-4.31l-24.83-43a8.61 8.61 0 0114.91-8.55l24.82 43a8.6 8.6 0 01-7.44 12.91zM84.74 165.73a8.62 8.62 0 01-4.3-1.15l-43-24.82a8.61 8.61 0 018.6-14.91l43 24.82a8.61 8.61 0 01-4.31 16.06zm385.5 222.57a8.55 8.55 0 01-4.29-1.15l-43-24.82a8.61 8.61 0 118.61-14.91l43 24.82a8.61 8.61 0 01-4.32 16.06zM58.25 264.61H8.6a8.61 8.61 0 010-17.21h49.65a8.61 8.61 0 110 17.21zm445.14 0h-49.64a8.61 8.61 0 110-17.21h49.64a8.61 8.61 0 110 17.21zM41.76 388.3a8.61 8.61 0 01-4.32-16.06l43-24.82a8.61 8.61 0 018.61 14.91l-43 24.82a8.55 8.55 0 01-4.29 1.15zm385.5-222.57a8.61 8.61 0 01-4.26-16.06l43-24.82a8.6 8.6 0 018.6 14.9l-43 24.83a8.62 8.62 0 01-4.34 1.15zM132.29 478.86a8.49 8.49 0 01-4.29-1.16 8.6 8.6 0 01-3.15-11.7l24.82-43a8.61 8.61 0 1114.91 8.61l-24.82 43a8.62 8.62 0 01-7.47 4.25zM354.86 93.35a8.6 8.6 0 01-7.44-12.91l24.82-43a8.61 8.61 0 0114.91 8.6l-24.82 43a8.61 8.61 0 01-7.47 4.31z"/></svg>