<svg version="1.1" id="Layer_1" xmlns="http://www.w3.org/2000/svg" x="0" y="0" viewBox="0 0 512 512" xml:space="preserve"><style>.st0{fill:#fadb5f}</style><path class="st0" d="M154.6 379.8c124.4 0 225.2-100.9 225.2-225.3 0-55.1-19.9-105.5-52.7-144.7 101.5 32.6 175.1 127.7 175.1 240.1 0 139.3-112.9 252.2-252.2 252.2-112.4 0-207.5-73.5-240.1-175.1 39.1 32.9 89.5 52.8 144.7 52.8z"/><path d="M405.8 52c33.7 42.9 54 96.8 54 155.6 0 139.3-112.9 252.2-252.2 252.2-58.8 0-112.8-20.3-155.6-54 46.2 58.6 117.6 96.3 197.9 96.3 139.3 0 252.2-112.9 252.2-252.2.1-80.3-37.7-151.7-96.3-197.9z" fill="#f7c948"/><path class="st0" d="M136.1 108.3l26 52.7 58.1 8.4-42.1 41 9.9 57.9-51.9-27.4-52 27.4 9.9-57.9-42-41 58.1-8.4zm146.5-16.8l13.5 27.3 30.1 4.3-21.8 21.3 5.1 30-26.9-14.2-26.9 14.2 5.1-30-21.8-21.3 30.1-4.3z"/></svg>