<svg id="Layer_1" data-name="Layer 1" xmlns="http://www.w3.org/2000/svg" viewBox="0 0 512 401.28"><defs><style>.cls-1{fill:#7b93db}</style></defs><path class="cls-1" d="M156 187.07h38.25a112.38 112.38 0 0168-54.36 39.45 39.45 0 00-48.25-22.6v-1.79A53 53 0 00109.48 96.6a31.8 31.8 0 00-36.2 12.07 39.84 39.84 0 10-10 78.4H127" transform="translate(0 -55.36)"/><path d="M373.54 163a112.15 112.15 0 00-191.31 51.76 67.25 67.25 0 00-76.66 25.56 84.36 84.36 0 10-21.21 166h93a52.22 52.22 0 0167.84-49.47c0-.79-.06-1.59-.06-2.39a70.22 70.22 0 01138.71-15.53 42.13 42.13 0 0148 16 52.87 52.87 0 0158.58 23.95 83.41 83.41 0 00-86.79-135.52c0-1.26.1-2.53.1-3.8a111.6 111.6 0 00-12.85-52.17" transform="translate(0 -55.36)" fill="#98aeeb"/><path class="cls-1" d="M89.44 237.74c-1.68-.1-3.37-.16-5.08-.16a84.36 84.36 0 000 168.72h93a52 52 0 016.46-24.82 261.77 261.77 0 01-94.38-143.74z" transform="translate(0 -55.36)"/><path d="M81.61 174a261.49 261.49 0 0112-78.53 31.77 31.77 0 00-20.33 13.17 39.84 39.84 0 10-10 78.4h18.66c-.21-4.29-.33-8.64-.33-13.04z" transform="translate(0 -55.36)" fill="#647acb"/><path d="M445.15 351a52.9 52.9 0 00-13.29 1.69 42.12 42.12 0 00-48-16 70.22 70.22 0 00-138.71 15.54c0 .8 0 1.6.06 2.39a52.22 52.22 0 10-15.63 102h215.57a52.83 52.83 0 100-105.65z" transform="translate(0 -55.36)" fill="#e0e8f9"/><path d="M285.26 337.52a130.26 130.26 0 0111.18-52.94 70.26 70.26 0 00-51.29 67.63c0 .8 0 1.59.06 2.38a52.22 52.22 0 10-15.64 102.05h132.68a130.61 130.61 0 01-76.99-119.12z" transform="translate(0 -55.36)" fill="#bed0f7"/></svg>