<svg version="1.1" id="Layer_1" xmlns="http://www.w3.org/2000/svg" x="0" y="0" viewBox="0 0 512 498.5" xml:space="preserve"><style>.st0{fill:#98aeeb}.st1{fill:#7b93db}</style><path class="st0" d="M430.1 110.1c-8.3 0-16.6 1.3-24.5 3.7 0-1.2.1-2.5.1-3.7 0-25.3-8.7-49.8-24.6-69.4L360.3 21C311.1-14.7 242.2-3.8 206.5 45.4c-8.7 12.1-15 25.8-18.2 40.3-27.9-9.3-58.5.9-75.3 25.1C68.7 99.4 23.6 126 12.1 170.3s15.2 89.4 59.5 100.9c6.7 1.7 13.6 2.6 20.5 2.6h338c45.2 0 81.9-36.6 81.9-81.8s-36.6-81.9-81.9-81.9c.1 0 .1 0 0 0z"/><path class="st1" d="M183.4 120.4c0-11.6 1.1-23.3 3.2-34.7-27.5-8.4-57.2 2-73.5 25.6-44.3-11.4-89.4 15.2-100.9 59.5s15.2 89.4 59.5 100.9c6.7 1.7 13.6 2.6 20.5 2.6h170.9c-50-35.3-79.8-92.7-79.7-153.9z"/><path class="st0" d="M457.1 423.7c-1.5 0-3-.3-4.4-1.1l-6.3-3.3c-23.1-12.3-44.9-23.9-89.5-23.9-18.8 0-35.1 2.1-49.8 6.4-5 1.5-10.2-1.4-11.7-6.3-1.5-5 1.4-10.2 6.4-11.7 16.4-4.8 34.4-7.2 55.1-7.2 49.3 0 74.2 13.3 98.3 26.1l6.2 3.3c4.6 2.4 6.4 8.1 3.9 12.7-1.6 3.1-4.8 5-8.2 5zm-212.8 6.2c-3.5 0-6.9-2-8.5-5.4-2.2-4.7-.2-10.3 4.5-12.5 6.3-2.9 12.1-6 18.3-9.3l6.4-3.4c4.6-2.4 10.3-.6 12.7 3.9 2.4 4.6.6 10.3-3.9 12.7l-6.3 3.3c-6.1 3.3-12.4 6.6-19.2 9.8-1.3.6-2.6.9-4 .9zm-75.1 15.5c-49.3 0-74.2-13.3-98.3-26.1l-6.2-3.3c-4.6-2.4-6.4-8.1-3.9-12.7 2.4-4.6 8.1-6.4 12.7-3.9l6.3 3.3c23.1 12.3 44.9 23.9 89.5 23.9 13.8 0 26-1.1 37.3-3.4 5.1-1 10 2.3 11 7.4 1 5.1-2.3 10-7.4 11-12.6 2.6-26 3.8-41 3.8z"/><path class="st1" d="M169.2 404.7c-5.5 0-10.8-.2-16-.5-6.9-.4-12.1-6.4-11.7-13.3.4-6.9 6.3-12.1 13.3-11.7 4.6.3 9.5.4 14.4.4 43.8 0 65.3-11.4 88-23.6 24.4-13 49.7-26.5 99.8-26.5 50.1 0 75.3 13.5 99.8 26.5l6.2 3.3c6.1 3.2 8.5 10.8 5.3 16.9-3.2 6.1-10.8 8.5-16.9 5.3l-6.3-3.3c-22.7-12.1-44.2-23.6-88-23.6s-65.3 11.4-88 23.6c-24.5 13-49.8 26.5-99.9 26.5zm-62.5-10.2c-1.5 0-2.9-.3-4.4-.8-12.4-4.6-22.8-10.2-32.9-15.6l-6.1-3.2c-6.1-3.2-8.5-10.8-5.3-16.9s10.8-8.5 16.9-5.3l6.2 3.3c9.8 5.2 19 10.2 29.9 14.2 6.5 2.4 9.8 9.6 7.3 16.1-1.8 5.1-6.6 8.2-11.6 8.2zm88.7 96.3c-6.2 0-11.6-4.7-12.4-11-.8-6.9 4.1-13.1 10.9-13.9 28.1-3.4 45.2-12.5 63.3-22.2 24.4-13 49.7-26.5 99.8-26.5 50.1 0 75.3 13.5 99.8 26.5l6.2 3.3c6.1 3.2 8.5 10.8 5.3 16.9-3.2 6.1-10.8 8.5-16.9 5.3l-6.3-3.3c-22.7-12.1-44.2-23.6-88-23.6s-65.3 11.4-88 23.6c-19.3 10.3-39.4 21-72.1 24.9h-1.6zm-44.9.8h-1c-37.5-3.1-59.1-14.6-80-25.7l-6.2-3.3c-6.1-3.2-8.5-10.8-5.3-16.9 3.2-6.1 10.8-8.5 16.9-5.3l6.3 3.3c19.5 10.4 37.9 20.2 70.2 22.9 6.9.6 12 6.6 11.5 13.5-.5 6.5-6 11.5-12.4 11.5z"/><path class="st0" d="M457.1 336.1c-1.5 0-3-.3-4.4-1.1l-6.2-3.3c-7-3.7-13.6-7.3-20.9-10.5-4.7-2.1-6.9-7.7-4.7-12.4 2.1-4.7 7.7-6.9 12.4-4.7 7.9 3.5 15.1 7.4 22.1 11.1l6.1 3.3c4.6 2.4 6.4 8.1 3.9 12.7-1.7 3-4.9 4.9-8.3 4.9zm-62.6-25.2c-.6 0-1.2-.1-1.8-.2-3.8-.7-7.8-1.3-11.8-1.8-5.2-.6-8.9-5.2-8.3-10.4.6-5.1 5.2-8.9 10.4-8.3 4.5.5 9 1.2 13.2 2 5.1 1 8.4 5.9 7.5 11-.8 4.6-4.7 7.7-9.2 7.7zm-180.1 42c-4.2 0-8.1-2.9-9.1-7.2-1.2-5 1.9-10.1 6.9-11.3 18.7-4.5 32.2-11.7 46.5-19.3 22.1-11.8 45-24 86.9-25.9 5.2-.2 9.6 3.8 9.8 9 .2 5.2-3.8 9.6-9 9.8-37.7 1.7-57.7 12.4-78.9 23.7-14.7 7.8-29.9 15.9-50.9 21-.7.1-1.5.2-2.2.2zm-45.2 4.9c-49.3 0-74.2-13.3-98.3-26.1l-6.2-3.3c-4.6-2.4-6.4-8.1-3.9-12.7 2.4-4.6 8.1-6.4 12.7-3.9l6.3 3.3c23.1 12.3 44.9 23.9 89.5 23.9 4.2 0 8.2-.1 12-.3 5.1-.2 9.6 3.7 9.9 8.9.3 5.2-3.7 9.6-8.9 9.9-4.2.1-8.5.3-13.1.3z"/></svg>