<svg version="1.1" id="Layer_1" xmlns="http://www.w3.org/2000/svg" x="0" y="0" viewBox="0 0 512 428.4" xml:space="preserve"><style>.st0{fill:#fadb5f}</style><path class="st0" d="M113.7 238.8c75.5 0 136.6-61.2 136.6-136.6 0-33.4-12-64-32-87.8C279.9 34.2 324.5 91.9 324.5 160c0 84.5-68.5 153-153 153-68.2 0-125.9-44.6-145.6-106.2 23.7 20 54.3 32 87.8 32z"/><path d="M266.1 40c20.5 26 32.8 58.7 32.8 94.4 0 84.5-68.5 153-153 153-35.7 0-68.4-12.3-94.4-32.8 28 35.5 71.3 58.4 120.1 58.4 84.5 0 153-68.5 153-153-.1-48.7-23-92-58.5-120z" fill="#f7c948"/><path class="st0" d="M102.5 74.1l15.7 32 35.3 5.1L128 136l6 35.1-31.5-16.5-31.6 16.5 6-35.1-25.5-24.8 35.3-5.1zm88.8-10.2l8.2 16.6 18.3 2.6L204.6 96l3.1 18.2-16.4-8.6-16.3 8.6 3.1-18.2-13.2-12.9 18.3-2.6z"/><path d="M458 221.7c-4.6 0-9.2.6-13.6 1.7-10.9-15.8-30.9-22.5-49.1-16.4-8.8-38.7-47.3-62.9-86-54.1-32.7 7.4-55.9 36.5-55.9 70 0 .8 0 1.6.1 2.4-28.2-8.8-58.2 6.9-67 35-.1.3-.2.6-.3 1 33.8-20.8 78.1-10.2 98.8 23.6 7 11.3 10.6 24.3 10.6 37.6 0 .8 0 1.6-.1 2.4 14.3-4.5 29.8-2.8 42.7 4.7H458c29.9 0 54-24.2 54-54.1 0-29.6-24.1-53.8-54-53.8z" fill="#bed0f7"/><path d="M311.5 321.6c-5.4 0-10.8.8-16 2.4 0-.8.1-1.6.1-2.4 0-39.7-32.2-71.9-71.9-71.9-33.6 0-62.7 23.2-70.1 56-18.2-6.1-38.2.6-49.1 16.4-28.9-7.5-58.4 9.8-65.9 38.7-7.5 28.9 9.8 58.4 38.7 65.9 4.4 1.2 9 1.7 13.6 1.7h220.6c29.5-.4 53.1-24.6 52.7-54.2-.4-28.9-23.8-52.2-52.7-52.6z" fill="#7b93db"/><path d="M311.5 321.6c-5.4 0-10.8.8-16 2.4 0-.8.1-1.6.1-2.4 0-39.7-32.2-71.9-71.9-71.9-33.6 0-62.7 23.2-70.1 56-8.4-2.8-17.4-3-25.9-.4 23.1 60.8 74.1 106.7 137.1 123.2h46.7c29.5-.4 53.1-24.6 52.7-54.2-.4-29-23.8-52.3-52.7-52.7z" fill="#98aeeb"/><path d="M458 221.7c-4.6 0-9.2.6-13.6 1.7-10.9-15.8-30.9-22.5-49.1-16.4-8.7-38.7-47.2-63-85.9-54.3-11.2 2.5-21.6 7.7-30.4 15.1v.1c0 75.7 50.8 142.1 123.9 161.9h55c29.9 0 54-24.2 54-54 .1-29.9-24.1-54.1-53.9-54.1z" fill="#e0e8f9"/></svg>