<svg id="Layer_2" data-name="Layer 2" xmlns="http://www.w3.org/2000/svg" viewBox="0 0 416 834"><defs><style>.cls-1{fill:#f5f7fa}.cls-2{fill:#cbd2d9}.cls-3{fill:#fff}</style></defs><path class="cls-1" d="M65.33 832.5a48.89 48.89 0 01-48.83-48.83V62.33A48.89 48.89 0 0165.33 13.5h47.17v-2h203v2h48.17a48.89 48.89 0 0148.83 48.83v721.34a48.89 48.89 0 01-48.83 48.83zm2-800A27.87 27.87 0 0039.5 60.33v729.34a27.87 27.87 0 0027.83 27.83h297.34a27.87 27.87 0 0027.83-27.83V60.33a27.87 27.87 0 00-27.83-27.83H315.5v2a27 27 0 01-27 27h-149a27 27 0 01-27-27v-2z" transform="translate(-7 -7)"/><path class="cls-2" d="M315 12v2h48.67A48.38 48.38 0 01412 62.33v721.34A48.38 48.38 0 01363.67 832H65.33A48.38 48.38 0 0117 783.67V62.33A48.38 48.38 0 0165.33 14H113v-2h202M139.5 61A26.53 26.53 0 01113 34.5V32H67.33A28.36 28.36 0 0039 60.33v729.34A28.36 28.36 0 0067.33 818h297.34A28.36 28.36 0 00393 789.67V60.33A28.36 28.36 0 00364.67 32H315v2.5A26.53 26.53 0 01288.5 61h-149M316 11H112v2H65.33A49.34 49.34 0 0016 62.33v721.34A49.34 49.34 0 0065.33 833h298.34A49.34 49.34 0 00413 783.67V62.33A49.34 49.34 0 00363.67 13H316v-2zM139.5 62h149A27.5 27.5 0 00316 34.5V33h48.67A27.34 27.34 0 01392 60.33v729.34A27.34 27.34 0 01364.67 817H67.33A27.34 27.34 0 0140 789.67V60.33A27.34 27.34 0 0167.33 33H112v1.5A27.5 27.5 0 00139.5 62z" transform="translate(-7 -7)"/><path class="cls-1" d="M72.33 840.5a59.9 59.9 0 01-59.83-59.83V310.5H9.67a2.17 2.17 0 01-2.17-2.17v-52.66a2.17 2.17 0 012.17-2.17h2.83v-17H9.67a2.17 2.17 0 01-2.17-2.17v-52.66a2.17 2.17 0 012.17-2.17h2.83v-31H9.67a2.17 2.17 0 01-2.17-2.17v-24.66a2.17 2.17 0 012.17-2.17h2.83V67.33A59.9 59.9 0 0172.33 7.5h285.34a59.9 59.9 0 0159.83 59.83V198.5h3a2 2 0 012 2v89.08a2 2 0 01-2 2h-3v489.09a59.9 59.9 0 01-59.83 59.83zm-6.66-825A43.21 43.21 0 0022.5 58.67v722.66a43.21 43.21 0 0043.17 43.17h299.66a43.21 43.21 0 0043.17-43.17V58.67a43.21 43.21 0 00-43.17-43.17z" transform="translate(-7 -7)"/><path class="cls-2" d="M357.67 8A59.4 59.4 0 01417 67.33V199h3.54a1.46 1.46 0 011.46 1.46v89.08a1.46 1.46 0 01-1.46 1.46H417v489.67A59.4 59.4 0 01357.67 840H72.33A59.4 59.4 0 0113 780.67V310H9.67A1.67 1.67 0 018 308.33v-52.66A1.67 1.67 0 019.67 254H13v-18H9.67A1.67 1.67 0 018 234.33v-52.66A1.67 1.67 0 019.67 180H13v-32H9.67A1.67 1.67 0 018 146.33v-24.66A1.67 1.67 0 019.67 120H13V67.33A59.4 59.4 0 0172.33 8h285.34m-292 817h299.66A43.72 43.72 0 00409 781.33V58.67A43.72 43.72 0 00365.33 15H65.67A43.72 43.72 0 0022 58.67v722.66A43.72 43.72 0 0065.67 825m292-818H72.33A60.33 60.33 0 0012 67.33V119H9.67A2.66 2.66 0 007 121.67v24.66A2.66 2.66 0 009.67 149H12v30H9.67A2.66 2.66 0 007 181.67v52.66A2.66 2.66 0 009.67 237H12v16H9.67A2.66 2.66 0 007 255.67v52.66A2.66 2.66 0 009.67 311H12v469.67A60.33 60.33 0 0072.33 841h285.34A60.33 60.33 0 00418 780.67V292h2.54a2.46 2.46 0 002.46-2.46v-89.08a2.46 2.46 0 00-2.46-2.46H418V67.33A60.33 60.33 0 00357.67 7zm-292 817A42.66 42.66 0 0123 781.33V58.67A42.66 42.66 0 0165.67 16h299.66A42.66 42.66 0 01408 58.67v722.66A42.66 42.66 0 01365.33 824z" transform="translate(-7 -7)"/><rect class="cls-3" x="183.5" y="28.5" width="48" height="5" rx="1.31"/><path class="cls-2" d="M237.19 36a.81.81 0 01.81.81v2.38a.81.81 0 01-.81.81h-45.38a.81.81 0 01-.81-.81v-2.38a.81.81 0 01.81-.81h45.38m0-1h-45.38a1.81 1.81 0 00-1.81 1.81v2.38a1.81 1.81 0 001.81 1.81h45.38a1.81 1.81 0 001.81-1.81v-2.38a1.81 1.81 0 00-1.81-1.81z" transform="translate(-7 -7)"/><circle class="cls-3" cx="248" cy="31" r="4.5"/><path class="cls-2" d="M255 34a4 4 0 11-4 4 4 4 0 014-4m0-1a5 5 0 105 5 5 5 0 00-5-5z" transform="translate(-7 -7)"/></svg>