<svg id="Layer_1" data-name="Layer 1" xmlns="http://www.w3.org/2000/svg" viewBox="0 0 512 434.38"><defs><style>.cls-2{fill:#bed0f7}.cls-3{fill:#fadb5f}.cls-4{fill:#f7c948}</style></defs><path d="M348.08 243.4h16.58a61.16 61.16 0 0061.16-61.16v-1.09h-112.4a39.32 39.32 0 110-78.63 39.74 39.74 0 019.88 1.25 31.45 31.45 0 0117.56-12.42 82.26 82.26 0 00-156.93 11.52 49.36 49.36 0 00-56.23 18.75A61.85 61.85 0 0056 207.38a56 56 0 01108.66 2.11 33.59 33.59 0 0138.27 12.76 42.18 42.18 0 0147.85 21.15h65" transform="translate(0 -38.81)" fill="#98aeeb"/><path class="cls-2" d="M448.81 330.2a8.92 8.92 0 01-7.12-14.28l15.63-20.79a8.92 8.92 0 1114.26 10.71L456 326.64a8.91 8.91 0 01-7.19 3.56zM413 377.86a8.92 8.92 0 01-7.12-14.27l15.63-20.8a8.92 8.92 0 0114.26 10.71l-15.63 20.8a8.91 8.91 0 01-7.14 3.56zm-35.81 47.67a8.92 8.92 0 01-7.12-14.28l15.63-20.8a8.92 8.92 0 0114.3 10.72L384.33 422a8.89 8.89 0 01-7.14 3.53zm-35.81 47.66a8.92 8.92 0 01-7.12-14.27l15.62-20.8a8.92 8.92 0 0114.26 10.71l-15.62 20.8a8.91 8.91 0 01-7.14 3.56zM85.15 377.86A8.91 8.91 0 0178 363.59l15.63-20.8a8.92 8.92 0 0114.26 10.71l-15.61 20.8a8.91 8.91 0 01-7.13 3.56zm-35.82 47.67a8.92 8.92 0 01-7.12-14.28l15.63-20.8a8.92 8.92 0 0114.26 10.72L56.47 422a8.89 8.89 0 01-7.14 3.53zm-35.81 47.66a8.92 8.92 0 01-7.12-14.27l15.6-20.8a8.91 8.91 0 0114.25 10.71l-15.62 20.8a8.91 8.91 0 01-7.11 3.56zM286.16 330.2a8.92 8.92 0 01-7.16-14.28l15.63-20.79a8.91 8.91 0 1114.25 10.71l-15.62 20.8a8.91 8.91 0 01-7.1 3.56zm-35.81 47.66a8.92 8.92 0 01-7.12-14.27l15.63-20.8a8.92 8.92 0 0114.26 10.71l-15.63 20.8a8.91 8.91 0 01-7.14 3.56zm-35.81 47.67a8.92 8.92 0 01-7.12-14.28l15.63-20.8a8.92 8.92 0 0114.26 10.72L221.68 422a8.89 8.89 0 01-7.14 3.53zm-35.81 47.66a8.92 8.92 0 01-7.12-14.27l15.63-20.8a8.91 8.91 0 0114.25 10.71l-15.62 20.8a8.91 8.91 0 01-7.14 3.56zm294.03-369.76a38.87 38.87 0 00-11.64 1.77v-1.77a52.27 52.27 0 00-103.2-11.57 31.39 31.39 0 00-35.73 11.91 39.76 39.76 0 00-9.89-1.25 39.32 39.32 0 100 78.63h160.46a38.86 38.86 0 100-77.72z" transform="translate(0 -38.81)"/><path class="cls-3" d="M341 390a2.89 2.89 0 00-2.61-1.66h-.17l-24.44 3 17.54-49.66c1.78-5 1.74-6.61 1.1-7.51a1.76 1.76 0 00-1.46-.75c-.49 0-2 0-5.9 5.33L269.61 414a1.74 1.74 0 00-.11.18 2.89 2.89 0 002.56 4.23h.12l21.8-2-20.5 52.59a2.88 2.88 0 001.22 3.54 3 3 0 001.47.4 2.89 2.89 0 002.24-1.07l62.19-78.72a2.91 2.91 0 00.4-3.15z" transform="translate(0 -38.81)"/><path class="cls-4" d="M272.06 418.4h.12l21.8-2-20.5 52.6a2.88 2.88 0 001.22 3.54l.22.11 39.54-69.8-21.8 2h-.12a2.9 2.9 0 01-2.56-4.23 1.74 1.74 0 01.11-.18l41.78-66.65a1.7 1.7 0 00-.92-.26c-.49 0-2 0-5.9 5.33L269.61 414a1.74 1.74 0 00-.11.18 2.9 2.9 0 002.56 4.23z" transform="translate(0 -38.81)"/><path class="cls-3" d="M511.73 390a2.89 2.89 0 00-2.61-1.66H509l-24.44 3 17.54-49.66c1.78-5 1.74-6.61 1.1-7.51a1.76 1.76 0 00-1.46-.75c-.49 0-2 0-5.9 5.33L440.35 414a1.74 1.74 0 00-.11.18 2.89 2.89 0 002.56 4.23h.12l21.8-2-20.5 52.59a2.88 2.88 0 001.22 3.54 3 3 0 001.47.4 2.89 2.89 0 002.24-1.07l62.19-78.72a2.91 2.91 0 00.39-3.15z" transform="translate(0 -38.81)"/><path class="cls-4" d="M442.8 418.4h.12l21.8-2-20.5 52.6a2.87 2.87 0 001.22 3.54l.22.11 39.54-69.8-21.8 2h-.12a2.9 2.9 0 01-2.56-4.23 1.74 1.74 0 01.11-.18l41.78-66.65a1.7 1.7 0 00-.92-.26c-.49 0-2 0-5.9 5.33L440.35 414a1.74 1.74 0 00-.11.18 2.89 2.89 0 002.56 4.23z" transform="translate(0 -38.81)"/><path class="cls-3" d="M170.25 390a2.9 2.9 0 00-2.62-1.66h-.16l-24.44 3 17.54-49.66c1.78-5 1.74-6.61 1.1-7.51a1.76 1.76 0 00-1.46-.75c-.49 0-2 0-5.9 5.33L98.87 414a1.74 1.74 0 00-.11.18 2.89 2.89 0 002.56 4.23h.12l21.8-2-20.5 52.59a2.88 2.88 0 001.26 3.5 2.92 2.92 0 001.47.4 2.89 2.89 0 002.24-1.07l62.19-78.72a2.91 2.91 0 00.35-3.11z" transform="translate(0 -38.81)"/><path class="cls-4" d="M101.32 418.4h.12l21.8-2-20.5 52.6a2.88 2.88 0 001.26 3.5l.22.11 39.54-69.8-21.8 2h-.12a2.9 2.9 0 01-2.56-4.23 1.74 1.74 0 01.11-.18l41.78-66.65a1.7 1.7 0 00-.92-.26c-.49 0-2 0-5.9 5.33L98.87 414a1.74 1.74 0 00-.11.18 2.9 2.9 0 002.56 4.23z" transform="translate(0 -38.81)"/><path d="M120.46 120.21A61.83 61.83 0 0056 207.38a56 56 0 0149.26-41.28 136.81 136.81 0 0115.2-45.89z" transform="translate(0 -38.81)" fill="#7b93db"/><path d="M472.76 103.43a38.87 38.87 0 00-11.64 1.77v-1.77a52.26 52.26 0 00-99.32-22.75 96.81 96.81 0 0042.39 100.47h68.53a38.86 38.86 0 100-77.72zM41.62 220.76a41.74 41.74 0 0112.47 1.9c0-.63-.05-1.26-.05-1.9a56 56 0 01110.57-12.39 33.59 33.59 0 0138.27 12.76A42.12 42.12 0 11213.47 304H41.62a41.63 41.63 0 010-83.25z" transform="translate(0 -38.81)" fill="#e0e8f9"/><path class="cls-2" d="M103.83 185.84a139.28 139.28 0 011.58-21 56 56 0 00-51.33 55.78c0 .64 0 1.27.05 1.9a41.63 41.63 0 10-12.46 81.38h129a137.57 137.57 0 01-66.84-118.06z" transform="translate(0 -38.81)"/></svg>