<svg data-name="Layer 1" xmlns="http://www.w3.org/2000/svg" viewBox="0 0 512 498.45"><path d="M430.15 110.09a82 82 0 00-24.51 3.73c0-1.24.1-2.48.1-3.73a109.62 109.62 0 00-24.62-69.39l-20.84-19.74a110.09 110.09 0 00-172 64.77 66.05 66.05 0 00-75.25 25.09 82.81 82.81 0 10-20.83 163h337.95a81.85 81.85 0 100-163.7z" fill="#98aeeb"/><path d="M457.77 358.36a8.74 8.74 0 01-7-14l15.31-20.37a8.747 8.747 0 1114 10.49l-15.31 20.37a8.72 8.72 0 01-7 3.51zm-35.08 46.69a8.74 8.74 0 01-7-14L431 370.7a8.756 8.756 0 1114 10.52l-15.3 20.38a8.73 8.73 0 01-7.01 3.45zm-35.08 46.7a8.74 8.74 0 01-7-14l15.31-20.38a8.75 8.75 0 1114 10.5l-15.32 20.35a8.74 8.74 0 01-6.99 3.53zm-35.09 46.69a8.73 8.73 0 01-7-14l15.31-20.37a8.747 8.747 0 1114 10.49l-15.31 20.38a8.71 8.71 0 01-7 3.5zM114 358.36a8.74 8.74 0 01-7-14l15.31-20.37a8.747 8.747 0 1114 10.49L121 354.87a8.7 8.7 0 01-7 3.49zm-35.11 46.69a8.73 8.73 0 01-7-14l15.3-20.37a8.747 8.747 0 0114 10.49l-15.31 20.4a8.72 8.72 0 01-6.99 3.48zm-35.08 46.7a8.74 8.74 0 01-7-14l15.31-20.38a8.75 8.75 0 1114 10.5L50.8 448.22a8.73 8.73 0 01-6.99 3.53zM8.73 498.44a8.74 8.74 0 01-7-14l15.31-20.37a8.747 8.747 0 0114 10.49l-15.32 20.4a8.73 8.73 0 01-6.99 3.48zm174-140.08a8.74 8.74 0 01-7-14l15.31-20.37a8.747 8.747 0 0114 10.49l-15.31 20.37a8.72 8.72 0 01-7 3.51zm-35.08 46.69a8.74 8.74 0 01-7-14L156 370.7a8.756 8.756 0 1114 10.52l-15.31 20.38a8.73 8.73 0 01-7.04 3.45zm-35.08 46.7a8.74 8.74 0 01-7-14l15.31-20.38a8.75 8.75 0 1114 10.5l-15.32 20.35a8.74 8.74 0 01-6.99 3.53zm-35.08 46.69a8.74 8.74 0 01-7-14l15.31-20.37a8.747 8.747 0 0114 10.49l-15.32 20.4a8.73 8.73 0 01-6.99 3.48zm174-140.08a8.74 8.74 0 01-7-14l15.31-20.37a8.747 8.747 0 0114 10.49l-15.31 20.37a8.72 8.72 0 01-7 3.51zm-35.08 46.69a8.74 8.74 0 01-7-14l15.31-20.37a8.747 8.747 0 0114 10.49l-15.32 20.4a8.73 8.73 0 01-6.99 3.48zm-35.08 46.7a8.74 8.74 0 01-7-14l15.31-20.38a8.75 8.75 0 1114 10.5l-15.32 20.35a8.74 8.74 0 01-6.99 3.53zm-35.08 46.69a8.74 8.74 0 01-7-14l15.31-20.37a8.747 8.747 0 1114 10.49l-15.31 20.38a8.73 8.73 0 01-7 3.5zm174-140.08a8.74 8.74 0 01-7-14l15.31-20.37a8.747 8.747 0 0114 10.49l-15.31 20.37a8.72 8.72 0 01-7 3.51zm-35.08 46.69a8.74 8.74 0 01-7-14l15.31-20.37a8.747 8.747 0 0114 10.49l-15.31 20.38a8.73 8.73 0 01-7 3.5zm-35.08 46.7a8.74 8.74 0 01-7-14l15.31-20.38a8.75 8.75 0 1114 10.5l-15.32 20.35a8.74 8.74 0 01-6.99 3.53zM215 498.44a8.74 8.74 0 01-7-14l15.31-20.37a8.747 8.747 0 0114 10.49L222 494.96a8.73 8.73 0 01-7 3.48zm174-140.08a8.74 8.74 0 01-7-14l15.31-20.37a8.747 8.747 0 1114 10.49L396 354.87a8.72 8.72 0 01-7 3.49zm-35.07 46.69a8.74 8.74 0 01-7-14l15.31-20.37a8.747 8.747 0 1114 10.49l-15.3 20.38a8.73 8.73 0 01-7.01 3.5zm-35.08 46.7a8.74 8.74 0 01-7-14l15.31-20.38a8.75 8.75 0 0114 10.5l-15.32 20.35a8.74 8.74 0 01-6.99 3.53zm-35.08 46.69a8.74 8.74 0 01-7-14l15.31-20.37a8.747 8.747 0 0114 10.49l-15.31 20.38a8.73 8.73 0 01-7 3.5z" fill="#bed0f7"/><path d="M183.36 120.4a189.12 189.12 0 013.21-34.72 66 66 0 00-73.52 25.63 82.81 82.81 0 10-20.83 163h170.89a188.09 188.09 0 01-79.75-153.91z" fill="#7b93db"/></svg>