<svg version="1.1" id="Layer_1" xmlns="http://www.w3.org/2000/svg" x="0" y="0" viewBox="0 0 512 498.5" xml:space="preserve"><style>.st1{fill:#bed0f7}</style><path d="M430.1 110.1c-8.3 0-16.6 1.3-24.5 3.7 0-1.2.1-2.5.1-3.7 0-25.3-8.7-49.8-24.6-69.4L360.3 21C311.1-14.7 242.2-3.8 206.5 45.4c-8.7 12.1-15 25.8-18.2 40.3-27.9-9.3-58.5.9-75.3 25.1C68.7 99.4 23.6 126 12.1 170.3s15.2 89.4 59.5 100.9c6.7 1.7 13.6 2.6 20.5 2.6h338c45.2 0 81.9-36.6 81.9-81.8s-36.6-81.9-81.9-81.9c.1 0 .1 0 0 0z" fill="#98aeeb"/><path class="st1" d="M457.8 358.4c-4.8 0-8.7-3.9-8.8-8.7 0-1.9.6-3.8 1.8-5.3l15.3-20.4c2.9-3.9 8.4-4.7 12.2-1.8s4.7 8.4 1.8 12.2l-15.3 20.4c-1.7 2.3-4.3 3.6-7 3.6zM422.7 405c-4.8 0-8.7-3.9-8.8-8.7 0-1.9.6-3.8 1.8-5.3l15.3-20.3c2.9-3.9 8.4-4.6 12.3-1.7 3.9 2.9 4.6 8.4 1.7 12.3l-15.3 20.4c-1.7 2.1-4.3 3.4-7 3.3zm-35.1 46.8c-4.8 0-8.7-3.9-8.8-8.7 0-1.9.6-3.8 1.8-5.3l15.3-20.4c2.9-3.9 8.4-4.6 12.3-1.8s4.6 8.4 1.8 12.3l-15.3 20.4c-1.7 2.1-4.3 3.4-7.1 3.5zm-35.1 46.6c-4.8 0-8.7-3.9-8.8-8.7 0-1.9.6-3.8 1.8-5.3l15.3-20.4c2.9-3.9 8.4-4.7 12.2-1.8s4.7 8.4 1.8 12.2l-15.3 20.4c-1.6 2.3-4.2 3.6-7 3.6zM114 358.4c-4.8 0-8.7-3.9-8.8-8.7 0-1.9.6-3.8 1.8-5.3l15.3-20.4c2.9-3.9 8.4-4.7 12.2-1.8s4.7 8.4 1.8 12.2L121 354.9c-1.6 2.2-4.2 3.5-7 3.5zM78.9 405c-4.8 0-8.7-3.9-8.8-8.7 0-1.9.6-3.8 1.8-5.3l15.3-20.4c2.9-3.9 8.4-4.7 12.2-1.8s4.7 8.4 1.8 12.2l-15.3 20.4c-1.7 2.4-4.3 3.7-7 3.6zm-35.1 46.8c-4.8 0-8.7-3.9-8.8-8.7 0-1.9.6-3.8 1.8-5.3l15.3-20.4c2.9-3.9 8.4-4.6 12.3-1.8s4.6 8.4 1.8 12.3l-15.3 20.4c-1.7 2.1-4.3 3.4-7.1 3.5zM8.7 498.4c-4.8 0-8.7-3.9-8.8-8.7 0-1.9.6-3.8 1.8-5.3L17 464.1c2.9-3.9 8.4-4.7 12.2-1.8s4.7 8.4 1.8 12.2L15.7 495c-1.6 2.2-4.2 3.4-7 3.4zm174-140c-4.8 0-8.7-3.9-8.8-8.7 0-1.9.6-3.8 1.8-5.3L191 324c2.9-3.9 8.4-4.7 12.2-1.8s4.7 8.4 1.8 12.2l-15.3 20.4c-1.6 2.3-4.2 3.6-7 3.6zM147.6 405c-4.8 0-8.7-3.9-8.8-8.7 0-1.9.6-3.8 1.8-5.3l15.4-20.3c2.9-3.9 8.4-4.6 12.3-1.7 3.9 2.9 4.6 8.4 1.7 12.3l-15.3 20.4c-1.7 2.1-4.3 3.4-7.1 3.3zm-35 46.8c-4.8 0-8.7-3.9-8.8-8.7 0-1.9.6-3.8 1.8-5.3l15.3-20.4c2.9-3.9 8.4-4.6 12.3-1.8s4.6 8.4 1.8 12.3l-15.3 20.4c-1.8 2.1-4.4 3.4-7.1 3.5zm-35.1 46.6c-4.8 0-8.7-3.9-8.8-8.7 0-1.9.6-3.8 1.8-5.3L85.8 464c2.9-3.9 8.4-4.7 12.2-1.8s4.7 8.4 1.8 12.2L84.5 495c-1.7 2.2-4.3 3.4-7 3.4zm311.5-140c-4.8 0-8.7-3.9-8.8-8.7 0-1.9.6-3.8 1.8-5.3l15.3-20.4c2.9-3.9 8.4-4.7 12.2-1.8s4.7 8.4 1.8 12.2L396 354.9c-1.7 2.2-4.2 3.5-7 3.5zM353.9 405c-4.8 0-8.7-3.9-8.8-8.7 0-1.9.6-3.8 1.8-5.3l15.3-20.4c2.9-3.9 8.4-4.7 12.2-1.8s4.7 8.4 1.8 12.2l-15.3 20.4c-1.6 2.4-4.2 3.7-7 3.6zm-35 46.8c-4.8 0-8.7-3.9-8.8-8.7 0-1.9.6-3.8 1.8-5.3l15.3-20.4c2.9-3.9 8.4-4.6 12.3-1.8s4.6 8.4 1.8 12.3L326 448.3c-1.8 2.1-4.4 3.4-7.1 3.5zm-35.1 46.6c-4.8 0-8.7-3.9-8.8-8.7 0-1.9.6-3.8 1.8-5.3l15.3-20.4c2.9-3.9 8.4-4.7 12.2-1.8s4.7 8.4 1.8 12.2l-15.3 20.4c-1.7 2.3-4.3 3.6-7 3.6z"/><path d="M183.4 120.4c0-11.6 1.1-23.3 3.2-34.7-27.5-8.4-57.2 2-73.5 25.6-44.3-11.4-89.4 15.2-100.9 59.5s15.2 89.4 59.5 100.9c6.7 1.7 13.6 2.6 20.5 2.6h170.9c-50-35.3-79.8-92.7-79.7-153.9z" fill="#7b93db"/><path class="st1" d="M303.4 373.6l-6.6-6.6h9.3c4.8 0 8.6-3.9 8.6-8.6s-3.9-8.6-8.6-8.6h-9.3l6.6-6.6c3.4-3.4 3.4-8.8 0-12.2s-8.8-3.4-12.2 0l-6.6 6.6v-9.3c0-4.8-3.9-8.6-8.6-8.6-4.8 0-8.6 3.9-8.6 8.6v9.3l-6.6-6.6c-3.4-3.4-8.8-3.4-12.2 0-3.4 3.4-3.4 8.8 0 12.2l6.6 6.6h-9.3c-4.8 0-8.6 3.9-8.6 8.6s3.9 8.6 8.6 8.6h9.3l-6.6 6.6c-3.5 3.3-3.6 8.7-.3 12.2 3.3 3.5 8.7 3.6 12.2.3l.3-.3 6.6-6.6v9.3c0 4.8 3.9 8.6 8.6 8.6 4.8 0 8.6-3.9 8.6-8.6v-9.3l6.6 6.6c3.5 3.3 8.9 3.1 12.2-.3 3.2-3.3 3.2-8.5 0-11.9zm-71.1 74.3H223l6.6-6.6c3.4-3.4 3.4-8.8 0-12.2-3.4-3.4-8.8-3.4-12.2 0l-6.6 6.6v-9.3c0-4.8-3.9-8.6-8.6-8.6s-8.6 3.9-8.6 8.6v9.3l-6.6-6.6c-3.4-3.4-8.8-3.4-12.2 0-3.4 3.4-3.4 8.8 0 12.2l6.6 6.6h-9.3c-4.8 0-8.6 3.9-8.6 8.6s3.9 8.6 8.6 8.6h9.3l-6.6 6.6c-3.5 3.3-3.6 8.7-.3 12.2 3.3 3.5 8.7 3.6 12.2.3l.3-.3 6.6-6.6v9.3c0 4.8 3.9 8.6 8.6 8.6s8.6-3.9 8.6-8.6v-9.3l6.6 6.6c3.4 3.4 8.8 3.4 12.2 0 3.4-3.4 3.4-8.8 0-12.2l-6.6-6.6h9.3c4.8 0 8.6-3.9 8.6-8.6s-3.9-8.6-8.6-8.6z"/></svg>