<svg id="Layer_1" data-name="Layer 1" xmlns="http://www.w3.org/2000/svg" viewBox="0 0 512 502.56"><defs><style>.cls-1{fill:#bed0f7}.cls-3{fill:#e0e8f9}</style></defs><path class="cls-1" d="M502.65 263.54h-9.33l6.6-6.59a8.63 8.63 0 10-12.2-12.21l-6.6 6.6V242a8.63 8.63 0 00-17.26 0v9.33l-6.59-6.6A8.63 8.63 0 10445.06 257l6.6 6.59h-9.33a8.63 8.63 0 000 17.26h9.33l-6.6 6.6a8.63 8.63 0 0012.21 12.2l6.59-6.6v9.33a8.63 8.63 0 0017.26 0V293l6.6 6.6a8.63 8.63 0 1012.2-12.2l-6.59-6.6h9.32a8.63 8.63 0 000-17.26zm-73.89 98.16h-9.33l6.6-6.6a8.63 8.63 0 00-12.2-12.2l-6.6 6.6v-9.33a8.63 8.63 0 10-17.26 0v9.33l-6.59-6.6a8.63 8.63 0 10-12.21 12.2l6.6 6.6h-9.33a8.63 8.63 0 000 17.26h9.33l-6.6 6.59a8.63 8.63 0 1012.21 12.21l6.59-6.6v9.33a8.63 8.63 0 0017.26 0v-9.33l6.6 6.6a8.63 8.63 0 0012.2-12.2l-6.6-6.6h9.33a8.63 8.63 0 000-17.26zm-73.89 98.16h-9.33l6.6-6.59a8.63 8.63 0 00-12.2-12.21l-6.6 6.6v-9.33a8.63 8.63 0 00-17.26 0v9.33l-6.59-6.6a8.63 8.63 0 10-12.21 12.21l6.6 6.59h-9.33a8.63 8.63 0 100 17.26h9.33l-6.6 6.59a8.63 8.63 0 1012.21 12.21l6.59-6.6v9.33a8.63 8.63 0 0017.26 0v-9.33l6.6 6.6a8.63 8.63 0 0012.2-12.2l-6.6-6.6h9.33a8.63 8.63 0 000-17.26zM299.69 280.8H309l-6.6 6.6a8.63 8.63 0 0012.21 12.2l6.59-6.6v9.33a8.63 8.63 0 1017.26 0V293l6.6 6.59a8.63 8.63 0 0012.2-12.2l-6.59-6.6H360a8.63 8.63 0 000-17.26h-9.32l6.59-6.59a8.63 8.63 0 00-12.2-12.21l-6.6 6.6V242a8.63 8.63 0 00-17.26 0v9.33l-6.59-6.6a8.63 8.63 0 10-12.2 12.27l6.6 6.59h-9.33a8.63 8.63 0 000 17.26zm-16.3 104.76L276.8 379h9.33a8.63 8.63 0 000-17.26h-9.33l6.6-6.59a8.63 8.63 0 00-12.21-12.21l-6.59 6.6v-9.33a8.63 8.63 0 00-17.26 0v9.33l-6.6-6.6a8.63 8.63 0 10-12.2 12.21l6.59 6.59h-9.32a8.63 8.63 0 000 17.26h9.32l-6.59 6.6a8.63 8.63 0 1012.2 12.2l6.6-6.6v9.33a8.63 8.63 0 0017.26 0v-9.32l6.59 6.59a8.63 8.63 0 0012.2-12.2zm-71.15 74.3h-9.33l6.6-6.59a8.63 8.63 0 10-12.21-12.21l-6.59 6.6v-9.33a8.63 8.63 0 10-17.26 0v9.33l-6.6-6.6a8.63 8.63 0 10-12.2 12.21l6.59 6.59h-9.33a8.63 8.63 0 000 17.26h9.33l-6.59 6.6a8.63 8.63 0 1012.2 12.2l6.6-6.6v9.33a8.63 8.63 0 1017.26 0v-9.33l6.59 6.6a8.63 8.63 0 1012.21-12.2l-6.6-6.6h9.33a8.63 8.63 0 000-17.26zm-60.77-89.53a8.63 8.63 0 00-8.62-8.63h-9.34l6.6-6.6a8.63 8.63 0 00-12.2-12.2l-6.6 6.6v-9.33a8.63 8.63 0 10-17.26 0v9.33l-6.59-6.6a8.63 8.63 0 10-12.21 12.2l6.6 6.6h-9.33a8.63 8.63 0 100 17.26h9.33l-6.6 6.59a8.63 8.63 0 1012.21 12.21l6.59-6.6v9.33a8.63 8.63 0 1017.26 0v-9.33l6.59 6.6a8.63 8.63 0 0012.21-12.21l-6.6-6.59h9.33a8.63 8.63 0 008.63-8.63zM69 459.86h-9.37l6.59-6.59A8.63 8.63 0 1054 441.06l-6.6 6.6v-9.33a8.63 8.63 0 00-17.26 0v9.33l-6.59-6.6a8.63 8.63 0 10-12.21 12.21l6.6 6.59H8.63a8.63 8.63 0 100 17.26H18l-6.6 6.59a8.63 8.63 0 1012.21 12.21l6.59-6.6v9.33a8.63 8.63 0 0017.26 0v-9.33l6.59 6.6a8.63 8.63 0 0012.21-12.21l-6.6-6.59H69a8.63 8.63 0 000-17.26z" transform="translate(0 -4.72)"/><path d="M420.58 142.47H311.83a38.05 38.05 0 119.57-74.88 30.39 30.39 0 0117-12 79.61 79.61 0 00-151.88 11.13 47.77 47.77 0 00-54.42 18.14 59.93 59.93 0 00-74.94 58 59.64 59.64 0 006.28 26.7 54.17 54.17 0 01104.38 4.68 32.53 32.53 0 0137 12.35 40.79 40.79 0 0143.67 16.15h112.93a59.19 59.19 0 0059.19-59.19c0-.38-.02-.73-.03-1.08z" transform="translate(0 -4.72)" fill="#98aeeb"/><path class="cls-3" d="M473 65.61a38.75 38.75 0 00-11.67 1.78v-1.78A52.41 52.41 0 00357.87 54 31.45 31.45 0 00322 66a39.43 39.43 0 10-9.91 77.6H473a39 39 0 100-77.94z" transform="translate(0 -4.72)"/><path d="M180.87 65.21a47.68 47.68 0 00-48.77 19.65 59.89 59.89 0 00-68.66 84.67 54.17 54.17 0 01104.38 4.68 32.53 32.53 0 0137 12.35 40.79 40.79 0 0143.67 16.15h45a151.78 151.78 0 01-112.62-137.5z" transform="translate(0 -4.72)" fill="#7b93db"/><path class="cls-1" d="M354.86 53.19A31.3 31.3 0 00322 66a39.43 39.43 0 10-9.91 77.6h100.2a100.26 100.26 0 01-57.43-90.41z" transform="translate(0 -4.72)"/><path class="cls-3" d="M215.65 183.11a41.36 41.36 0 00-10.38 1.32 33 33 0 00-37.52-12.51 54.88 54.88 0 00-108.4 12.15v1.86a40.81 40.81 0 10-12.22 79.75h168.52a41.29 41.29 0 100-82.57z" transform="translate(0 -4.72)"/><path class="cls-1" d="M74.1 146.64a54.69 54.69 0 00-14.76 37.42v1.87a40.81 40.81 0 10-12.22 79.75h111.61A128.11 128.11 0 0174.1 146.64z" transform="translate(0 -4.72)"/></svg>