<svg id="Layer_1" data-name="Layer 1" xmlns="http://www.w3.org/2000/svg" viewBox="0 0 512 390.2"><defs><style>.cls-1{fill:#bed0f7}</style></defs><path class="cls-1" d="M454.08 298.1h-154.2a8.75 8.75 0 010-17.5h154.2a8.75 8.75 0 110 17.5zM93.14 351.85H81.21a8.76 8.76 0 010-17.51h11.93a8.76 8.76 0 010 17.51zm169.22 99.25a8.75 8.75 0 010-17.5 40.88 40.88 0 000-81.76H121.93a8.75 8.75 0 010-17.5h140.43a58.38 58.38 0 010 116.76z" transform="translate(0 -60.9)"/><path class="cls-1" d="M262.36 451a58.38 58.38 0 01-58.31-58.31 8.75 8.75 0 0117.5 0 40.86 40.86 0 0040.81 40.81 8.75 8.75 0 010 17.5zm191.26.1a8.75 8.75 0 010-17.5 40.88 40.88 0 000-81.76H337.26a8.75 8.75 0 010-17.5h116.36a58.38 58.38 0 010 116.76z" transform="translate(0 -60.9)"/><path class="cls-1" d="M453.62 451a58.38 58.38 0 01-58.31-58.31 8.75 8.75 0 0117.5 0 40.86 40.86 0 0040.81 40.81 8.75 8.75 0 010 17.5zM327.63 169.18a8.75 8.75 0 01-4.91-16 40.88 40.88 0 00-22.84-74.78 8.75 8.75 0 110-17.5 58.38 58.38 0 0132.64 106.78 8.65 8.65 0 01-4.89 1.5z" transform="translate(0 -60.9)"/><path class="cls-1" d="M250.32 128.1a8.75 8.75 0 01-8.75-8.75A58.38 58.38 0 01299.88 61a8.76 8.76 0 010 17.51 40.85 40.85 0 00-40.81 40.81 8.75 8.75 0 01-8.75 8.78zm197.53 111.44h-73.24a8.75 8.75 0 110-17.5h73.24a40.88 40.88 0 000-81.76 8.75 8.75 0 010-17.5 58.38 58.38 0 010 116.76z" transform="translate(0 -60.9)"/><path class="cls-1" d="M398.29 190a8.75 8.75 0 01-8.75-8.75 58.38 58.38 0 0158.31-58.31 8.75 8.75 0 110 17.5A40.86 40.86 0 00407 181.23a8.75 8.75 0 01-8.71 8.77zm99.19 108.1h-13.12a8.75 8.75 0 010-17.5h13.12a8.75 8.75 0 010 17.5z" transform="translate(0 -60.9)"/><path d="M286.74 185a57 57 0 00-14.22 1.8 45.13 45.13 0 00-51.4-17.14 75.2 75.2 0 00-148.53 16.62c0 .86 0 1.71.06 2.55A55.92 55.92 0 1055.91 298.1h230.83a56.56 56.56 0 100-113.12z" transform="translate(0 -60.9)" fill="#7b93db"/><path d="M286.74 185a57 57 0 00-14.22 1.8 45.13 45.13 0 00-51.4-17.14 75.2 75.2 0 00-96.6-54.87 171.94 171.94 0 0069.54 183.31h92.68a56.56 56.56 0 100-113.12z" transform="translate(0 -60.9)" fill="#98aeeb"/></svg>