<?xml version="1.0" encoding="utf-8"?>
<!-- Generator: Adobe Illustrator 24.0.2, SVG Export Plug-In . SVG Version: 6.00 Build 0)  -->
<svg version="1.1" id="Layer_1" xmlns="http://www.w3.org/2000/svg" xmlns:xlink="http://www.w3.org/1999/xlink" x="0px" y="0px"
	 viewBox="0 0 512 512" style="enable-background:new 0 0 512 512;" xml:space="preserve">
<style type="text/css">
	.st0{fill:#FADB5F;}
	.st1{fill:#F7C948;}
</style>
<title>sun</title>
<g>
	<path class="st0" d="M154.6,379.8c124.4,0,225.2-100.9,225.2-225.3c0-55.1-19.9-105.5-52.7-144.7
		c101.5,32.6,175.1,127.7,175.1,240.1c0,139.3-112.9,252.2-252.2,252.2c-112.4,0-207.5-73.5-240.1-175.1
		C49,359.9,99.4,379.8,154.6,379.8z"/>
	<path class="st1" d="M405.8,52c33.7,42.9,54,96.8,54,155.6c0,139.3-112.9,252.2-252.2,252.2c-58.8,0-112.8-20.3-155.6-54
		c46.2,58.6,117.6,96.3,197.9,96.3c139.3,0,252.2-112.9,252.2-252.2C502.2,169.6,464.4,98.2,405.8,52z"/>
	<g>
		<polygon class="st0" points="136.1,108.3 162.1,161 220.2,169.4 178.1,210.4 188,268.3 136.1,240.9 84.1,268.3 94,210.4 52,169.4 
			110.1,161 		"/>
		<polygon class="st0" points="282.6,91.5 296.1,118.8 326.2,123.1 304.4,144.4 309.5,174.4 282.6,160.2 255.7,174.4 260.8,144.4 
			239,123.1 269.1,118.8 		"/>
	</g>
</g>
</svg>
