<svg id="Layer_1" data-name="Layer 1" xmlns="http://www.w3.org/2000/svg" viewBox="0 0 512 401.28"><defs><style>.cls-1{fill:#7b93db;}.cls-2{fill:#98aeeb;}.cls-3{fill:#647acb;}.cls-4{fill:#e0e8f9;}.cls-5{fill:#bed0f7;}</style></defs><title>clouds</title><path class="cls-1" d="M156,187.07h38.25a112.38,112.38,0,0,1,68-54.36A39.45,39.45,0,0,0,214,110.11c0-.59,0-1.19,0-1.79A53,53,0,0,0,109.48,96.6a31.8,31.8,0,0,0-36.2,12.07,39.84,39.84,0,1,0-10,78.4H127" transform="translate(0 -55.36)"/><path class="cls-2" d="M373.54,163a112.15,112.15,0,0,0-191.31,51.76,67.25,67.25,0,0,0-76.66,25.56,84.36,84.36,0,1,0-21.21,166h93a52.22,52.22,0,0,1,67.84-49.47c0-.79-.06-1.59-.06-2.39a70.22,70.22,0,0,1,138.71-15.53,42.13,42.13,0,0,1,48,16,52.87,52.87,0,0,1,58.58,23.95,83.41,83.41,0,0,0-86.79-135.52c0-1.26.1-2.53.1-3.8a111.6,111.6,0,0,0-12.85-52.17" transform="translate(0 -55.36)"/><path class="cls-1" d="M89.44,237.74c-1.68-.1-3.37-.16-5.08-.16a84.36,84.36,0,0,0,0,168.72h93a52,52,0,0,1,6.46-24.82A261.77,261.77,0,0,1,89.44,237.74Z" transform="translate(0 -55.36)"/><path class="cls-3" d="M81.61,174a261.49,261.49,0,0,1,12-78.53,31.77,31.77,0,0,0-20.33,13.17,39.84,39.84,0,1,0-10,78.4H81.94C81.73,182.75,81.61,178.4,81.61,174Z" transform="translate(0 -55.36)"/><path class="cls-4" d="M445.15,351a52.9,52.9,0,0,0-13.29,1.69,42.12,42.12,0,0,0-48-16,70.22,70.22,0,0,0-138.71,15.54c0,.8,0,1.6.06,2.39a52.22,52.22,0,1,0-15.63,102H445.15a52.83,52.83,0,1,0,0-105.65Z" transform="translate(0 -55.36)"/><path class="cls-5" d="M285.26,337.52a130.26,130.26,0,0,1,11.18-52.94,70.26,70.26,0,0,0-51.29,67.63c0,.8,0,1.59.06,2.38a52.22,52.22,0,1,0-15.64,102.05H362.25A130.61,130.61,0,0,1,285.26,337.52Z" transform="translate(0 -55.36)"/></svg>