<svg id="Capa_1" data-name="Capa 1" xmlns="http://www.w3.org/2000/svg" viewBox="0 0 392.2 320.16"><defs><style>.cls-1{fill:#98aeeb;}.cls-2{fill:#fadb5f;}</style></defs><title>favicon</title><path class="cls-1" d="M265.18,212.3a72,72,0,1,1,0,143.76h-209a56.2,56.2,0,0,1,0-112.4h4a87.45,87.45,0,1,1,173.24-24,71.64,71.64,0,0,1,31.76-7.36Z" transform="translate(0 -36.02)"/><path class="cls-2" d="M221.06,72.06a7.28,7.28,0,0,1-13.91,4.32c-.07-.22-.12-.45-.17-.68l-8-30.24a7.28,7.28,0,0,1,13.9-4.32c.07.22.13.45.18.68Zm-53.8,26.32a7.3,7.3,0,1,1-10.36,10.28l-22-22.24a7.28,7.28,0,0,1,9.31-11.19,7.59,7.59,0,0,1,1,1.07ZM352.74,223.1a7.3,7.3,0,1,1,4-14l30.16,8.24a7.3,7.3,0,0,1-4,14h0Zm4-59.76a7.28,7.28,0,0,1-3.64-14.08l30.24-8A7.28,7.28,0,0,1,387,155.34ZM330.5,109.58a7.31,7.31,0,0,1-10.32-10.36l22.24-22A7.3,7.3,0,1,1,352.7,87.58ZM280.78,76.3a7.3,7.3,0,1,1-14-4h0L275,42.14a7.3,7.3,0,0,1,14,4Zm-8,36a76.27,76.27,0,0,1,34.6,114,72,72,0,0,0-74.16-6.08,87.58,87.58,0,0,0-57.64-69.88,76,76,0,0,1,97.08-38.28Z" transform="translate(0 -36.02)"/></svg>