<?xml version="1.0" encoding="utf-8"?>
<!-- Generator: Adobe Illustrator 24.0.2, SVG Export Plug-In . SVG Version: 6.00 Build 0)  -->
<svg version="1.1" id="Layer_1" xmlns="http://www.w3.org/2000/svg" xmlns:xlink="http://www.w3.org/1999/xlink" x="0px" y="0px"
	 viewBox="0 0 512 498.5" style="enable-background:new 0 0 512 498.5;" xml:space="preserve">
<style type="text/css">
	.st0{fill:#98AEEB;}
	.st1{fill:#7B93DB;}
</style>
<title>rain</title>
<path class="st0" d="M430.1,110.1c-8.3,0-16.6,1.3-24.5,3.7c0-1.2,0.1-2.5,0.1-3.7c0-25.3-8.7-49.8-24.6-69.4L360.3,21
	C311.1-14.7,242.2-3.8,206.5,45.4c-8.7,12.1-15,25.8-18.2,40.3c-27.9-9.3-58.5,0.9-75.3,25.1c-44.3-11.4-89.4,15.2-100.9,59.5
	s15.2,89.4,59.5,100.9c6.7,1.7,13.6,2.6,20.5,2.6h338c45.2,0,81.9-36.6,81.9-81.8S475.4,110.1,430.1,110.1
	C430.2,110.1,430.2,110.1,430.1,110.1L430.1,110.1z"/>
<path class="st1" d="M183.4,120.4c0-11.6,1.1-23.3,3.2-34.7c-27.5-8.4-57.2,2-73.5,25.6c-44.3-11.4-89.4,15.2-100.9,59.5
	s15.2,89.4,59.5,100.9c6.7,1.7,13.6,2.6,20.5,2.6h170.9C213.1,239,183.3,181.6,183.4,120.4z"/>
<path class="st0" d="M457.1,423.7c-1.5,0-3-0.3-4.4-1.1l-6.3-3.3c-23.1-12.3-44.9-23.9-89.5-23.9c-18.8,0-35.1,2.1-49.8,6.4
	c-5,1.5-10.2-1.4-11.7-6.3c-1.5-5,1.4-10.2,6.4-11.7c16.4-4.8,34.4-7.2,55.1-7.2c49.3,0,74.2,13.3,98.3,26.1l6.2,3.3
	c4.6,2.4,6.4,8.1,3.9,12.7C463.7,421.8,460.5,423.7,457.1,423.7z"/>
<path class="st0" d="M244.3,429.9c-3.5,0-6.9-2-8.5-5.4c-2.2-4.7-0.2-10.3,4.5-12.5c6.3-2.9,12.1-6,18.3-9.3l6.4-3.4
	c4.6-2.4,10.3-0.6,12.7,3.9c2.4,4.6,0.6,10.3-3.9,12.7l-6.3,3.3c-6.1,3.3-12.4,6.6-19.2,9.8C247,429.6,245.7,429.9,244.3,429.9z"/>
<path class="st0" d="M169.2,445.4c-49.3,0-74.2-13.3-98.3-26.1l-6.2-3.3c-4.6-2.4-6.4-8.1-3.9-12.7c2.4-4.6,8.1-6.4,12.7-3.9
	l6.3,3.3c23.1,12.3,44.9,23.9,89.5,23.9c13.8,0,26-1.1,37.3-3.4c5.1-1,10,2.3,11,7.4c1,5.1-2.3,10-7.4,11
	C197.6,444.2,184.2,445.4,169.2,445.4z"/>
<path class="st1" d="M169.2,404.7c-5.5,0-10.8-0.2-16-0.5c-6.9-0.4-12.1-6.4-11.7-13.3c0.4-6.9,6.3-12.1,13.3-11.7
	c4.6,0.3,9.5,0.4,14.4,0.4c43.8,0,65.3-11.4,88-23.6c24.4-13,49.7-26.5,99.8-26.5c50.1,0,75.3,13.5,99.8,26.5l6.2,3.3
	c6.1,3.2,8.5,10.8,5.3,16.9c-3.2,6.1-10.8,8.5-16.9,5.3l-6.3-3.3c-22.7-12.1-44.2-23.6-88-23.6c-43.8,0-65.3,11.4-88,23.6
	C244.6,391.2,219.3,404.7,169.2,404.7z"/>
<path class="st1" d="M106.7,394.5c-1.5,0-2.9-0.3-4.4-0.8c-12.4-4.6-22.8-10.2-32.9-15.6l-6.1-3.2c-6.1-3.2-8.5-10.8-5.3-16.9
	s10.8-8.5,16.9-5.3l6.2,3.3c9.8,5.2,19,10.2,29.9,14.2c6.5,2.4,9.8,9.6,7.3,16.1C116.5,391.4,111.7,394.5,106.7,394.5z"/>
<path class="st1" d="M195.4,490.8c-6.2,0-11.6-4.7-12.4-11c-0.8-6.9,4.1-13.1,10.9-13.9c28.1-3.4,45.2-12.5,63.3-22.2
	c24.4-13,49.7-26.5,99.8-26.5c50.1,0,75.3,13.5,99.8,26.5l6.2,3.3c6.1,3.2,8.5,10.8,5.3,16.9c-3.2,6.1-10.8,8.5-16.9,5.3l-6.3-3.3
	c-22.7-12.1-44.2-23.6-88-23.6c-43.8,0-65.3,11.4-88,23.6c-19.3,10.3-39.4,21-72.1,24.9C196.4,490.8,195.9,490.8,195.4,490.8z"/>
<path class="st1" d="M150.5,491.6c-0.3,0-0.7,0-1,0c-37.5-3.1-59.1-14.6-80-25.7l-6.2-3.3c-6.1-3.2-8.5-10.8-5.3-16.9
	c3.2-6.1,10.8-8.5,16.9-5.3l6.3,3.3c19.5,10.4,37.9,20.2,70.2,22.9c6.9,0.6,12,6.6,11.5,13.5C162.4,486.6,156.9,491.6,150.5,491.6z"
	/>
<path class="st0" d="M457.1,336.1c-1.5,0-3-0.3-4.4-1.1l-6.2-3.3c-7-3.7-13.6-7.3-20.9-10.5c-4.7-2.1-6.9-7.7-4.7-12.4
	c2.1-4.7,7.7-6.9,12.4-4.7c7.9,3.5,15.1,7.4,22.1,11.1l6.1,3.3c4.6,2.4,6.4,8.1,3.9,12.7C463.7,334.2,460.5,336.1,457.1,336.1z"/>
<g>
	<path class="st0" d="M394.5,310.9c-0.6,0-1.2-0.1-1.8-0.2c-3.8-0.7-7.8-1.3-11.8-1.8c-5.2-0.6-8.9-5.2-8.3-10.4
		c0.6-5.1,5.2-8.9,10.4-8.3c4.5,0.5,9,1.2,13.2,2c5.1,1,8.4,5.9,7.5,11C402.9,307.8,399,310.9,394.5,310.9z"/>
	<path class="st0" d="M214.4,352.9c-4.2,0-8.1-2.9-9.1-7.2c-1.2-5,1.9-10.1,6.9-11.3c18.7-4.5,32.2-11.7,46.5-19.3
		c22.1-11.8,45-24,86.9-25.9c5.2-0.2,9.6,3.8,9.8,9c0.2,5.2-3.8,9.6-9,9.8c-37.7,1.7-57.7,12.4-78.9,23.7
		c-14.7,7.8-29.9,15.9-50.9,21C215.9,352.8,215.1,352.9,214.4,352.9z"/>
</g>
<path class="st0" d="M169.2,357.8c-49.3,0-74.2-13.3-98.3-26.1l-6.2-3.3c-4.6-2.4-6.4-8.1-3.9-12.7c2.4-4.6,8.1-6.4,12.7-3.9
	l6.3,3.3c23.1,12.3,44.9,23.9,89.5,23.9c4.2,0,8.2-0.1,12-0.3c5.1-0.2,9.6,3.7,9.9,8.9c0.3,5.2-3.7,9.6-8.9,9.9
	C178.1,357.6,173.8,357.8,169.2,357.8z"/>
</svg>
