<svg id="Layer_1" data-name="Layer 1" xmlns="http://www.w3.org/2000/svg" viewBox="0 0 512 502.56"><defs><style>.cls-1{fill:#bed0f7;}.cls-2{fill:#98aeeb;}.cls-3{fill:#e0e8f9;}.cls-4{fill:#7b93db;}</style></defs><title>heavy-snow</title><path class="cls-1" d="M502.65,263.54h-9.33l6.6-6.59a8.63,8.63,0,1,0-12.2-12.21l-6.6,6.6V242a8.63,8.63,0,0,0-17.26,0v9.33l-6.59-6.6A8.63,8.63,0,1,0,445.06,257l6.6,6.59h-9.33a8.63,8.63,0,0,0,0,17.26h9.33l-6.6,6.6a8.63,8.63,0,0,0,12.21,12.2l6.59-6.6v9.33a8.63,8.63,0,0,0,17.26,0V293l6.6,6.6a8.63,8.63,0,1,0,12.2-12.2l-6.59-6.6h9.32a8.63,8.63,0,0,0,0-17.26Z" transform="translate(0 -4.72)"/><path class="cls-1" d="M428.76,361.7h-9.33l6.6-6.6a8.63,8.63,0,0,0-12.2-12.2l-6.6,6.6v-9.33a8.63,8.63,0,1,0-17.26,0v9.33l-6.59-6.6a8.63,8.63,0,1,0-12.21,12.2l6.6,6.6h-9.33a8.63,8.63,0,0,0,0,17.26h9.33l-6.6,6.59a8.63,8.63,0,1,0,12.21,12.21l6.59-6.6v9.33a8.63,8.63,0,0,0,17.26,0v-9.33l6.6,6.6a8.63,8.63,0,0,0,12.2-12.2l-6.6-6.6h9.33a8.63,8.63,0,0,0,0-17.26Z" transform="translate(0 -4.72)"/><path class="cls-1" d="M354.87,459.86h-9.33l6.6-6.59a8.63,8.63,0,0,0-12.2-12.21l-6.6,6.6v-9.33a8.63,8.63,0,0,0-17.26,0v9.33l-6.59-6.6a8.63,8.63,0,1,0-12.21,12.21l6.6,6.59h-9.33a8.63,8.63,0,1,0,0,17.26h9.33l-6.6,6.59a8.63,8.63,0,1,0,12.21,12.21l6.59-6.6v9.33a8.63,8.63,0,0,0,17.26,0v-9.33l6.6,6.6a8.63,8.63,0,0,0,12.2-12.2l-6.6-6.6h9.33a8.63,8.63,0,0,0,0-17.26Z" transform="translate(0 -4.72)"/><path class="cls-1" d="M299.69,280.8H309l-6.6,6.6a8.63,8.63,0,0,0,12.21,12.2l6.59-6.6v9.33a8.63,8.63,0,1,0,17.26,0V293l6.6,6.59a8.63,8.63,0,0,0,12.2-12.2l-6.59-6.6H360a8.63,8.63,0,0,0,0-17.26h-9.32l6.59-6.59a8.63,8.63,0,0,0-12.2-12.21l-6.6,6.6V242a8.63,8.63,0,0,0-17.26,0v9.33l-6.59-6.6A8.63,8.63,0,1,0,302.42,257l6.6,6.59h-9.33a8.63,8.63,0,0,0,0,17.26Z" transform="translate(0 -4.72)"/><path class="cls-1" d="M283.39,385.56,276.8,379h9.33a8.63,8.63,0,0,0,0-17.26H276.8l6.6-6.59a8.63,8.63,0,0,0-12.21-12.21l-6.59,6.6v-9.33a8.63,8.63,0,0,0-17.26,0v9.33l-6.6-6.6a8.63,8.63,0,1,0-12.2,12.21l6.59,6.59h-9.32a8.63,8.63,0,0,0,0,17.26h9.32l-6.59,6.6a8.63,8.63,0,1,0,12.2,12.2l6.6-6.6v9.33a8.63,8.63,0,0,0,17.26,0v-9.32l6.59,6.59a8.63,8.63,0,0,0,12.2-12.2Z" transform="translate(0 -4.72)"/><path class="cls-1" d="M212.24,459.86h-9.33l6.6-6.59a8.63,8.63,0,1,0-12.21-12.21l-6.59,6.6v-9.33a8.63,8.63,0,1,0-17.26,0v9.33l-6.6-6.6a8.63,8.63,0,1,0-12.2,12.21l6.59,6.59h-9.33a8.63,8.63,0,0,0,0,17.26h9.33l-6.59,6.6a8.63,8.63,0,1,0,12.2,12.2l6.6-6.6v9.33a8.63,8.63,0,1,0,17.26,0v-9.33l6.59,6.6a8.63,8.63,0,1,0,12.21-12.2l-6.6-6.6h9.33a8.63,8.63,0,0,0,0-17.26Z" transform="translate(0 -4.72)"/><path class="cls-1" d="M151.47,370.33a8.63,8.63,0,0,0-8.62-8.63h-9.34l6.6-6.6a8.63,8.63,0,0,0-12.2-12.2l-6.6,6.6v-9.33a8.63,8.63,0,1,0-17.26,0v9.33l-6.59-6.6a8.63,8.63,0,1,0-12.21,12.2l6.6,6.6H82.52a8.63,8.63,0,1,0,0,17.26h9.33l-6.6,6.59a8.63,8.63,0,1,0,12.21,12.21l6.59-6.6v9.33a8.63,8.63,0,1,0,17.26,0v-9.33l6.59,6.6a8.63,8.63,0,0,0,12.21-12.21l-6.6-6.59h9.33A8.63,8.63,0,0,0,151.47,370.33Z" transform="translate(0 -4.72)"/><path class="cls-1" d="M69,459.86H59.63l6.59-6.59A8.63,8.63,0,1,0,54,441.06l-6.6,6.6v-9.33a8.63,8.63,0,0,0-17.26,0v9.33l-6.59-6.6a8.63,8.63,0,1,0-12.21,12.21l6.6,6.59H8.63a8.63,8.63,0,1,0,0,17.26H18l-6.6,6.59a8.63,8.63,0,1,0,12.21,12.21l6.59-6.6v9.33a8.63,8.63,0,0,0,17.26,0v-9.33l6.59,6.6a8.63,8.63,0,0,0,12.21-12.21l-6.6-6.59H69a8.63,8.63,0,0,0,0-17.26Z" transform="translate(0 -4.72)"/><path class="cls-2" d="M420.58,142.47H311.83a38.05,38.05,0,1,1,9.57-74.88,30.39,30.39,0,0,1,17-12A79.61,79.61,0,0,0,186.52,66.72,47.77,47.77,0,0,0,132.1,84.86a59.93,59.93,0,0,0-74.94,58,59.64,59.64,0,0,0,6.28,26.7,54.17,54.17,0,0,1,104.38,4.68,32.53,32.53,0,0,1,37,12.35,40.79,40.79,0,0,1,43.67,16.15H361.42a59.19,59.19,0,0,0,59.19-59.19C420.61,143.17,420.59,142.82,420.58,142.47Z" transform="translate(0 -4.72)"/><path class="cls-3" d="M473,65.61a38.75,38.75,0,0,0-11.67,1.78c0-.59,0-1.18,0-1.78A52.41,52.41,0,0,0,357.87,54,31.45,31.45,0,0,0,322,66a39.43,39.43,0,1,0-9.91,77.6H473a39,39,0,1,0,0-77.94Z" transform="translate(0 -4.72)"/><path class="cls-4" d="M180.87,65.21A47.68,47.68,0,0,0,132.1,84.86a59.89,59.89,0,0,0-68.66,84.67,54.17,54.17,0,0,1,104.38,4.68,32.53,32.53,0,0,1,37,12.35,40.79,40.79,0,0,1,43.67,16.15h45A151.78,151.78,0,0,1,180.87,65.21Z" transform="translate(0 -4.72)"/><path class="cls-1" d="M354.86,53.19A31.3,31.3,0,0,0,322,66a39.43,39.43,0,1,0-9.91,77.6h100.2A100.26,100.26,0,0,1,354.86,53.19Z" transform="translate(0 -4.72)"/><path class="cls-3" d="M215.65,183.11a41.36,41.36,0,0,0-10.38,1.32,33,33,0,0,0-37.52-12.51,54.88,54.88,0,0,0-108.4,12.15c0,.62,0,1.24,0,1.86a40.81,40.81,0,1,0-12.22,79.75H215.65a41.29,41.29,0,1,0,0-82.57Z" transform="translate(0 -4.72)"/><path class="cls-1" d="M74.1,146.64a54.69,54.69,0,0,0-14.76,37.42c0,.63,0,1.25,0,1.87a40.81,40.81,0,1,0-12.22,79.75H158.73A128.11,128.11,0,0,1,74.1,146.64Z" transform="translate(0 -4.72)"/></svg>