<svg id="Layer_1" data-name="Layer 1" xmlns="http://www.w3.org/2000/svg" viewBox="0 0 512 428.42"><defs><style>.cls-1{fill:#fadb5f;}.cls-2{fill:#f7c948;}.cls-3{fill:#de911d;}.cls-4{fill:#f0b429;}.cls-5{fill:#bed0f7;}.cls-6{fill:#7b93db;}.cls-7{fill:#98aeeb;}.cls-8{fill:#e0e8f9;}</style></defs><title>cloudy</title><path class="cls-1" d="M202,98.18a8.81,8.81,0,0,1-8.81-8.81V50.6a8.81,8.81,0,1,1,17.62,0V89.37A8.8,8.8,0,0,1,202,98.18Z" transform="translate(0 -41.79)"/><path class="cls-1" d="M124.8,118.87a8.79,8.79,0,0,1-7.63-4.41L97.78,80.89A8.81,8.81,0,1,1,113,72.08l19.38,33.57a8.81,8.81,0,0,1-7.62,13.22Z" transform="translate(0 -41.79)"/><path class="cls-1" d="M68.26,175.4a8.76,8.76,0,0,1-4.39-1.19L30.29,154.83a8.81,8.81,0,0,1,8.81-15.26L72.68,159a8.81,8.81,0,0,1-4.42,16.44Z" transform="translate(0 -41.79)"/><path class="cls-1" d="M47.58,252.61H8.81a8.81,8.81,0,0,1,0-17.62H47.58a8.81,8.81,0,0,1,0,17.62Z" transform="translate(0 -41.79)"/><path class="cls-1" d="M34.7,349.21a8.81,8.81,0,0,1-4.41-16.44l33.58-19.38a8.81,8.81,0,0,1,8.81,15.25L39.1,348A8.78,8.78,0,0,1,34.7,349.21Z" transform="translate(0 -41.79)"/><path class="cls-1" d="M335.76,175.4A8.81,8.81,0,0,1,331.35,159l33.57-19.39a8.81,8.81,0,1,1,8.81,15.26l-33.58,19.38A8.76,8.76,0,0,1,335.76,175.4Z" transform="translate(0 -41.79)"/><path class="cls-1" d="M279.22,118.87a8.8,8.8,0,0,1-7.62-13.21L291,72.08a8.81,8.81,0,1,1,15.26,8.81l-19.39,33.58A8.8,8.8,0,0,1,279.22,118.87Z" transform="translate(0 -41.79)"/><path class="cls-2" d="M297.29,337.82c.48-.49,1-1,1.43-1.49l.9-.95,1.33-1.46.9-1c.43-.48.85-1,1.27-1.46l.89-1.05,1.22-1.48.87-1.08,1.19-1.53c.27-.36.55-.71.82-1.08.41-.53.8-1.07,1.19-1.6l.76-1.05c.42-.58.83-1.18,1.24-1.77l.65-.93q.8-1.17,1.56-2.37l.25-.38q.89-1.38,1.74-2.79c.18-.29.35-.58.52-.87.39-.66.78-1.31,1.16-2l.62-1.11c.33-.59.66-1.18,1-1.78.22-.4.43-.81.65-1.22l.88-1.71.64-1.28c.28-.57.55-1.14.82-1.71l.62-1.31c.26-.57.52-1.15.77-1.72s.39-.89.59-1.33.49-1.17.73-1.76.37-.88.54-1.33c.25-.6.48-1.21.71-1.82.17-.43.34-.86.5-1.3.24-.64.46-1.29.69-2l.43-1.2c.26-.76.5-1.53.75-2.29.09-.3.2-.6.29-.9.33-1.07.65-2.14,1-3.22.07-.25.13-.5.2-.74.23-.84.46-1.68.68-2.52.1-.4.19-.81.29-1.21.17-.7.34-1.39.5-2.09.1-.45.2-.9.29-1.36.15-.65.29-1.31.42-2,.1-.47.18-.95.27-1.43.12-.64.24-1.29.35-1.93s.17-1,.25-1.47.2-1.29.29-1.94c.08-.49.15-1,.21-1.48s.17-1.3.25-2c.06-.49.12-1,.17-1.48.07-.66.13-1.34.19-2,.05-.48.09-1,.13-1.45.06-.7.1-1.4.15-2.11,0-.45.06-.91.08-1.37.05-.78.07-1.56.1-2.34,0-.39,0-.77.05-1.16,0-1.18,0-2.35,0-3.53A130.05,130.05,0,0,0,204.21,116.93h0A129.91,129.91,0,0,0,74.15,247c0,1.18,0,2.35,0,3.52,0,.39,0,.78,0,1.17,0,.78.06,1.56.1,2.34,0,.46.06.92.09,1.37,0,.71.09,1.41.14,2.11,0,.49.09,1,.13,1.45.06.67.12,1.34.2,2,0,.5.11,1,.16,1.48.08.66.16,1.31.25,2l.21,1.48c.09.65.19,1.3.29,1.94s.16,1,.25,1.46c.11.65.23,1.3.35,1.94l.27,1.43c.13.66.28,1.32.42,2,.1.45.19.91.29,1.36.16.7.33,1.39.5,2.09l.3,1.21c.21.84.44,1.68.67,2.51.07.25.13.5.2.75.31,1.08.63,2.15,1,3.22l.3.9c.24.76.49,1.53.75,2.29.13.4.28.8.42,1.2.23.65.46,1.3.7,2,.16.44.33.87.49,1.3.23.61.47,1.22.71,1.82l.54,1.33c.24.59.49,1.17.74,1.75s.39.89.58,1.34l.78,1.72c.2.43.4.87.61,1.31s.55,1.14.83,1.71l.63,1.28c.29.57.59,1.14.89,1.71.21.41.43.82.65,1.22.32.6.65,1.18,1,1.77l.63,1.12c.38.66.76,1.32,1.16,2l.51.88q.86,1.41,1.74,2.79l.25.38c.52.8,1,1.59,1.57,2.37l.64.93,1.24,1.77.76,1c.4.54.79,1.08,1.19,1.61l.83,1.08,1.19,1.53c.28.36.58.72.87,1.08s.8,1,1.21,1.47l.9,1.06,1.26,1.46.91,1c.44.49.88,1,1.33,1.45.3.32.59.65.89,1,.48.51,1,1,1.44,1.49l.85.87c.54.55,1.09,1.08,1.64,1.62l.7.68c.78.75,1.58,1.5,2.38,2.23h0c.83.74,1.66,1.48,2.5,2.21l.06.05,0,0A129.83,129.83,0,0,0,138,359l.09.07.5.28q1.31.76,2.64,1.5c.23.13.46.27.7.39q1.66.92,3.36,1.77l.79.4c.89.44,1.79.88,2.69,1.3l1,.49c.95.44,1.91.87,2.88,1.28l.65.29q1.75.74,3.54,1.44l.89.34c.93.35,1.85.7,2.78,1l1.09.38c1,.36,2.07.7,3.12,1l.57.18c1.23.38,2.46.75,3.71,1.09.32.1.66.18,1,.27.95.26,1.91.51,2.87.74l1.13.28c1.12.27,2.24.52,3.37.76l.46.09c1.27.27,2.55.5,3.84.73l1.07.18,2.94.45,1.16.16c1.23.16,2.46.31,3.69.44l.26,0c1.32.14,2.65.25,4,.34l1.14.07c1,.07,2,.12,3,.16l1.18,0c1.35,0,2.69.07,4,.07h0c1.36,0,2.71,0,4.05-.07l1.18,0c1,0,2-.09,3-.16l1.14-.07c1.33-.09,2.66-.2,4-.34l.26,0c1.23-.13,2.46-.28,3.69-.44l1.16-.16,2.94-.45,1.07-.18c1.29-.22,2.57-.46,3.85-.73l.45-.09c1.13-.24,2.26-.49,3.38-.76l1.13-.27c1-.24,1.91-.49,2.86-.75l1-.26c1.24-.35,2.48-.72,3.7-1.1l.57-.18c1-.34,2.09-.68,3.12-1l1.09-.38c.93-.33,1.86-.68,2.78-1l.89-.34c1.19-.46,2.37-.94,3.55-1.44l.65-.28c1-.42,1.92-.85,2.87-1.29l1-.48c.9-.43,1.8-.86,2.69-1.31l.8-.4c1.12-.57,2.24-1.16,3.35-1.76l.71-.4,2.64-1.5.49-.28.09-.06a130.67,130.67,0,0,0,18.74-13.47h0l.06-.06c.84-.73,1.68-1.46,2.5-2.21h0c.8-.73,1.6-1.48,2.39-2.23l.69-.68q.84-.8,1.65-1.62C296.73,338.4,297,338.11,297.29,337.82Z" transform="translate(0 -41.79)"/><path class="cls-1" d="M282,142.77a129.48,129.48,0,0,0-77.82-25.84h0a130.07,130.07,0,0,0-22.82,2,142.76,142.76,0,0,0,76,246.74l1.14-.51,1.05-.49c.9-.42,1.79-.86,2.68-1.3l.8-.4c1.13-.57,2.25-1.16,3.36-1.76l.7-.4q1.33-.74,2.64-1.5l.5-.28.08-.07a129.28,129.28,0,0,0,18.74-13.46l0,0a.18.18,0,0,0,.07-.05c.84-.73,1.67-1.47,2.5-2.21h0c.81-.73,1.61-1.48,2.39-2.23l.7-.68c.55-.54,1.1-1.07,1.64-1.62l.85-.87c.48-.49,1-1,1.44-1.49.3-.31.59-.64.89-1,.45-.48.89-1,1.33-1.45l.91-1,1.26-1.46.9-1.06c.41-.48.81-1,1.21-1.47l.87-1.08,1.19-1.53.83-1.08c.4-.53.79-1.07,1.19-1.61l.76-1,1.24-1.77.64-.93c.53-.78,1.05-1.57,1.57-2.37l.25-.38q.89-1.38,1.74-2.79l.51-.88c.39-.65.78-1.31,1.16-2l.63-1.12c.32-.58.65-1.17,1-1.77.22-.4.44-.81.65-1.22.3-.57.6-1.14.89-1.71l.63-1.28c.28-.57.56-1.14.83-1.71s.41-.87.61-1.31l.78-1.72c.19-.45.39-.89.58-1.34s.49-1.16.74-1.75l.54-1.33c.24-.6.48-1.21.71-1.82.16-.43.33-.86.49-1.3.24-.65.47-1.3.7-2l.42-1.2c.26-.76.51-1.53.75-2.29l.3-.9c.33-1.07.65-2.14,1-3.22l.21-.75c.23-.83.46-1.67.67-2.51l.3-1.21c.17-.7.34-1.39.49-2.09.11-.45.2-.91.3-1.36.14-.65.28-1.31.41-2,.1-.48.19-.95.28-1.43.12-.64.24-1.29.35-1.94l.24-1.46c.11-.64.21-1.29.3-1.94l.21-1.48.24-2c.06-.49.12-1,.17-1.48.07-.66.14-1.34.2-2,0-.48.09-1,.13-1.45,0-.7.1-1.4.14-2.11,0-.45.07-.91.09-1.37,0-.78.07-1.56.1-2.34,0-.39,0-.77,0-1.16,0-1.18,0-2.35,0-3.53A129.73,129.73,0,0,0,282,142.77Z" transform="translate(0 -41.79)"/><path class="cls-3" d="M302.38,243.62l0-.84q-.15-3.36-.51-6.66l-.09-.81c-.26-2.2-.6-4.37-1-6.52l-.15-.78q-.63-3.22-1.47-6.36c-.06-.25-.13-.5-.2-.76q-.85-3.13-1.92-6.18l-.26-.72c-.72-2-1.51-4-2.36-6-.09-.23-.2-.46-.3-.69-.86-2-1.79-3.88-2.77-5.77-.12-.22-.24-.44-.35-.66-1-1.88-2.06-3.71-3.17-5.52-.14-.21-.27-.43-.4-.64a98.85,98.85,0,0,0-17-20.28h0a.23.23,0,0,0-.07-.07l-.8-.71-.91-.81-.84-.72-.9-.76-.87-.71-.91-.73-.9-.7-.91-.7-.92-.68-.92-.68-.94-.66-.94-.65-1-.64-1-.64-1-.62-1-.61-1-.6-1-.59-1-.57-1-.58-1-.54-1.06-.56-1-.51-1.11-.55-1-.47-1.2-.56-.9-.42c-.5-.23-1-.45-1.52-.66l-.6-.27c-.71-.3-1.42-.58-2.13-.87l-.83-.31-1.35-.52-.93-.33-1.27-.45-1-.33-1.24-.4-1-.31c-.41-.12-.82-.25-1.23-.36l-1-.29-1.23-.34-1.07-.27-1.23-.3-1.07-.25-1.25-.27-1.08-.22-1.26-.24-1.09-.2-1.28-.21-1.08-.16-1.31-.19-1.07-.14-1.34-.15-1.07-.12-1.37-.12-1-.08-1.45-.1-1-.06-1.62-.06-.83,0c-.82,0-1.63,0-2.45,0h0c-.82,0-1.63,0-2.45,0l-.83,0-1.61.06-1,.06-1.45.1-1,.08-1.37.12-1.07.12-1.34.15-1.07.14-1.31.19-1.08.16-1.28.21-1.09.2-1.26.24-1.08.22-1.25.27-1.07.25-1.23.3-1.06.27-1.23.34-1,.29-1.23.36-1,.31-1.23.4-1,.33-1.26.45-.94.33-1.35.52-.83.31c-.71.29-1.42.57-2.13.87l-.6.27c-.51.21-1,.43-1.52.66l-.9.42-1.2.56-1,.47-1.11.55-1,.51-1.06.56-1,.54-1,.58-1,.57-1,.59-1,.6-1,.61-1,.62-1,.64-.94.64-1,.65-.93.66-.93.68-.92.68-.91.7-.9.7-.91.73-.87.71-.9.76-.85.72-.9.81-.8.71a.23.23,0,0,0-.07.07h0A98.85,98.85,0,0,0,121,194.73l-.4.64c-1.11,1.81-2.17,3.64-3.17,5.52l-.35.66c-1,1.89-1.91,3.81-2.78,5.77l-.3.69c-.85,2-1.63,4-2.36,6l-.25.72q-1.07,3-1.92,6.18l-.21.76q-.84,3.14-1.47,6.36l-.15.78q-.6,3.22-1,6.52c0,.27-.07.54-.1.81q-.36,3.3-.5,6.66l0,.83c0,1.13-.07,2.25-.07,3.38a98.29,98.29,0,0,0,.51,10.05c.17,1.65.38,3.28.62,4.91a99.54,99.54,0,0,0,2.6,11.93,98.27,98.27,0,0,0,94.5,71.34h0a98.26,98.26,0,0,0,94.5-71.34,95.81,95.81,0,0,0,2.6-11.93c.25-1.62.45-3.26.62-4.91a98.29,98.29,0,0,0,.51-10.05C302.44,245.86,302.42,244.74,302.38,243.62Z" transform="translate(0 -41.79)"/><path class="cls-4" d="M302.35,242.78q-.15-3.36-.51-6.66l-.09-.81c-.26-2.2-.6-4.37-1-6.52l-.15-.78q-.63-3.22-1.47-6.36c-.06-.25-.13-.5-.2-.75-.57-2.09-1.21-4.16-1.92-6.19l-.26-.72c-.72-2-1.51-4-2.36-6-.09-.23-.2-.46-.3-.69-.86-2-1.79-3.88-2.77-5.77-.12-.22-.24-.44-.35-.66q-1.5-2.8-3.17-5.52c-.14-.21-.27-.42-.4-.64a99.12,99.12,0,0,0-17-20.28h0l-.07-.07-.8-.71-.91-.81-.84-.72-.9-.76-.87-.71-.91-.73-.9-.69-.91-.71-.92-.68-.92-.67-.94-.67-.94-.65-1-.64-1-.64-1-.62-1-.61-1-.59-1-.6-1-.57-1-.58-1-.54-1.06-.56-1-.51-1.11-.55-1-.47-1.2-.56-.9-.42c-.5-.23-1-.44-1.52-.66l-.6-.27-2.13-.87-.83-.31-1.35-.52-.93-.33-1.27-.45-1-.32-1.24-.41-1-.31-1.23-.36-1-.29-1.23-.34-1.07-.27-1.23-.3-1.07-.25-1.25-.27-1.08-.22-1.26-.24-1.09-.19-1.28-.22-1.08-.16-1.31-.19-1.07-.14-1.34-.15-1.07-.12-1.37-.12-1-.08-1.45-.1-1-.06-1.62-.06-.83,0c-.82,0-1.63,0-2.45,0h0c-.82,0-1.63,0-2.45,0-.27,0-.55,0-.83,0l-1.61.06c-.33,0-.66.05-1,.06l-1.45.1-1,.08-1.37.12-1.07.12-1.34.15-1.07.14-1.31.19-1.08.16-1.28.22-1.09.19-1.26.24-1.08.22-1.25.27-1.07.25-1.23.3-1.06.27-1.23.34-1,.29-1.23.36-1,.31-1.23.41-1,.32-1.26.45-.94.33-1.35.52-.83.31c-.71.29-1.42.57-2.13.87l-.6.27c-.51.21-1,.43-1.52.66l-.9.42-1.2.56-1,.47-1.11.55-1,.51-1.06.56-1,.54-1,.58-1,.57c-.34.2-.68.39-1,.6s-.65.39-1,.59l-1,.61-1,.62-1,.64-.94.64-1,.65-.93.67-.21.15a142.85,142.85,0,0,0,54.82,177.84c.88,0,1.76.05,2.64.05h0A98,98,0,0,0,301.31,262c.25-1.62.46-3.26.62-4.91a98.29,98.29,0,0,0,.51-10.05c0-1.13,0-2.25-.06-3.37Z" transform="translate(0 -41.79)"/><path class="cls-5" d="M458,263.52a53.9,53.9,0,0,0-13.59,1.73,43.11,43.11,0,0,0-49.12-16.38,71.86,71.86,0,0,0-141.93,15.9c0,.82,0,1.63.06,2.44a53.46,53.46,0,0,0-67.28,36,71.86,71.86,0,0,1,109.49,61.22c0,.82,0,1.63-.06,2.44a53.48,53.48,0,0,1,42.7,4.72H458a54.05,54.05,0,0,0,0-108.1Z" transform="translate(0 -41.79)"/><path class="cls-6" d="M311.51,363.36a53.17,53.17,0,0,0-16,2.44c0-.81.07-1.62.07-2.44a71.86,71.86,0,0,0-141.94-15.9,43.11,43.11,0,0,0-49.11,16.37,54.06,54.06,0,1,0-13.6,106.38H311.51a53.43,53.43,0,0,0,0-106.85Z" transform="translate(0 -41.79)"/><path class="cls-7" d="M311.51,363.36a53.17,53.17,0,0,0-16,2.44c0-.81.07-1.62.07-2.44a71.86,71.86,0,0,0-141.94-15.9,43.09,43.09,0,0,0-25.91-.44A201,201,0,0,0,264.8,470.21h46.71a53.43,53.43,0,0,0,0-106.85Z" transform="translate(0 -41.79)"/><path class="cls-8" d="M458,263.52a53.9,53.9,0,0,0-13.59,1.73,43.11,43.11,0,0,0-49.12-16.38A71.84,71.84,0,0,0,279,209.68v.08A167.71,167.71,0,0,0,402.92,371.62h55a54.05,54.05,0,0,0,0-108.1Z" transform="translate(0 -41.79)"/></svg>