<?xml version="1.0" encoding="utf-8"?>
<!-- Generator: Adobe Illustrator 24.0.2, SVG Export Plug-In . SVG Version: 6.00 Build 0)  -->
<svg version="1.1" id="Layer_1" xmlns="http://www.w3.org/2000/svg" xmlns:xlink="http://www.w3.org/1999/xlink" x="0px" y="0px"
	 viewBox="0 0 512 428.4" style="enable-background:new 0 0 512 428.4;" xml:space="preserve">
<style type="text/css">
	.st0{fill:#FADB5F;}
	.st1{fill:#F7C948;}
	.st2{fill:#BED0F7;}
	.st3{fill:#7B93DB;}
	.st4{fill:#98AEEB;}
	.st5{fill:#E0E8F9;}
</style>
<g>
	<path class="st0" d="M113.7,238.8c75.5,0,136.6-61.2,136.6-136.6c0-33.4-12-64-32-87.8C279.9,34.2,324.5,91.9,324.5,160
		c0,84.5-68.5,153-153,153c-68.2,0-125.9-44.6-145.6-106.2C49.6,226.8,80.2,238.8,113.7,238.8z"/>
	<path class="st1" d="M266.1,40c20.5,26,32.8,58.7,32.8,94.4c0,84.5-68.5,153-153,153c-35.7,0-68.4-12.3-94.4-32.8
		c28,35.5,71.3,58.4,120.1,58.4c84.5,0,153-68.5,153-153C324.5,111.3,301.6,68,266.1,40z"/>
	<g>
		<polygon class="st0" points="102.5,74.1 118.2,106.1 153.5,111.2 128,136 134,171.1 102.5,154.6 70.9,171.1 76.9,136 51.4,111.2 
			86.7,106.1 		"/>
		<polygon class="st0" points="191.3,63.9 199.5,80.5 217.8,83.1 204.6,96 207.7,114.2 191.3,105.6 175,114.2 178.1,96 164.9,83.1 
			183.2,80.5 		"/>
	</g>
</g>
<title>cloudy</title>
<path class="st2" d="M458,221.7c-4.6,0-9.2,0.6-13.6,1.7c-10.9-15.8-30.9-22.5-49.1-16.4c-8.8-38.7-47.3-62.9-86-54.1
	c-32.7,7.4-55.9,36.5-55.9,70c0,0.8,0,1.6,0.1,2.4c-28.2-8.8-58.2,6.9-67,35c-0.1,0.3-0.2,0.6-0.3,1c33.8-20.8,78.1-10.2,98.8,23.6
	c7,11.3,10.6,24.3,10.6,37.6c0,0.8,0,1.6-0.1,2.4c14.3-4.5,29.8-2.8,42.7,4.7H458c29.9,0,54-24.2,54-54.1
	C512,245.9,487.9,221.7,458,221.7L458,221.7z"/>
<path class="st3" d="M311.5,321.6c-5.4,0-10.8,0.8-16,2.4c0-0.8,0.1-1.6,0.1-2.4c0-39.7-32.2-71.9-71.9-71.9
	c-33.6,0-62.7,23.2-70.1,56c-18.2-6.1-38.2,0.6-49.1,16.4c-28.9-7.5-58.4,9.8-65.9,38.7c-7.5,28.9,9.8,58.4,38.7,65.9
	c4.4,1.2,9,1.7,13.6,1.7h220.6c29.5-0.4,53.1-24.6,52.7-54.2C363.8,345.3,340.4,322,311.5,321.6z"/>
<path class="st4" d="M311.5,321.6c-5.4,0-10.8,0.8-16,2.4c0-0.8,0.1-1.6,0.1-2.4c0-39.7-32.2-71.9-71.9-71.9
	c-33.6,0-62.7,23.2-70.1,56c-8.4-2.8-17.4-3-25.9-0.4c23.1,60.8,74.1,106.7,137.1,123.2h46.7c29.5-0.4,53.1-24.6,52.7-54.2
	C363.8,345.3,340.4,322,311.5,321.6L311.5,321.6z"/>
<path class="st5" d="M458,221.7c-4.6,0-9.2,0.6-13.6,1.7c-10.9-15.8-30.9-22.5-49.1-16.4c-8.7-38.7-47.2-63-85.9-54.3
	c-11.2,2.5-21.6,7.7-30.4,15.1v0.1c0,75.7,50.8,142.1,123.9,161.9h55c29.9,0,54-24.2,54-54C512,245.9,487.8,221.7,458,221.7
	L458,221.7z"/>
</svg>
