<?xml version="1.0" encoding="utf-8"?>
<!-- Generator: Adobe Illustrator 24.0.2, SVG Export Plug-In . SVG Version: 6.00 Build 0)  -->
<svg version="1.1" id="Layer_2_1_" xmlns="http://www.w3.org/2000/svg" xmlns:xlink="http://www.w3.org/1999/xlink" x="0px" y="0px"
	 viewBox="0 0 416 836.6" style="enable-background:new 0 0 416 836.6;" xml:space="preserve">
<style type="text/css">
	.st0{fill:#FFFFFF;}
	.st1{fill:#F5F7FA;}
	.st2{fill:#CBD2D9;}
</style>
<path class="st0" d="M369.8,819.5h-321c-12.3,0-22.3-10-22.3-22.4L25.7,31.6c0-7.1,5.7-12.8,12.8-12.8h340.1
	c7.1,0,12.8,5.7,12.8,12.8l0.8,765.5C392.1,809.4,382.1,819.5,369.8,819.5z M-0.5,0v835.6h416V0H-0.5z"/>
<title>phone background</title>
<path class="st1" d="M58.3,828.1c-27,0-48.8-21.9-48.8-48.8V57.9c0-27,21.9-48.8,48.8-48.8h47.2v-2h203v2h48.2
	c27,0,48.8,21.9,48.8,48.8v721.3c0,27-21.9,48.8-48.8,48.8H58.3z M60.3,28.1c-15.4,0-27.8,12.5-27.8,27.8v729.3
	c0,15.4,12.5,27.8,27.8,27.8h297.3c15.4,0,27.8-12.5,27.8-27.8V55.9c0-15.4-12.5-27.8-27.8-27.8h-49.2v2c0,14.9-12.1,27-27,27h-149
	c-14.9,0-27-12.1-27-27v-2H60.3z"/>
<path class="st2" d="M308,7.6v2h48.7c26.7,0,48.3,21.6,48.3,48.3v721.3c0,26.7-21.6,48.3-48.3,48.3H58.3
	c-26.7,0-48.3-21.6-48.3-48.3V57.9C10,31.2,31.6,9.6,58.3,9.6H106v-2H308 M132.5,56.6c-14.6,0-26.5-11.9-26.5-26.5v-2.5H60.3
	C44.7,27.6,32,40.2,32,55.9v729.3c0,15.6,12.7,28.3,28.3,28.3h297.3c15.6,0,28.3-12.7,28.3-28.3V55.9c0-15.6-12.7-28.3-28.3-28.3
	H308v2.5c0,14.6-11.9,26.5-26.5,26.5H132.5 M309,6.6H105v2H58.3C31.1,8.6,9,30.6,9,57.9v721.3c0,27.2,22.1,49.3,49.3,49.3h298.3
	c27.2,0,49.3-22.1,49.3-49.3V57.9c0-27.2-22.1-49.3-49.3-49.3H309V6.6z M132.5,57.6h149c15.2,0,27.5-12.3,27.5-27.5v-1.5h48.7
	c15.1,0,27.3,12.2,27.3,27.3v729.3c0,15.1-12.2,27.3-27.3,27.3H60.3c-15.1,0-27.3-12.2-27.3-27.3V55.9c0-15.1,12.2-27.3,27.3-27.3
	H105v1.5C105,45.2,117.3,57.6,132.5,57.6z"/>
<path class="st1" d="M65.3,836.1c-33,0-59.8-26.8-59.8-59.8V306.1H2.7c-1.2,0-2.2-1-2.2-2.2l0,0v-52.7c0-1.2,1-2.2,2.2-2.2h2.8v-17
	H2.7c-1.2,0-2.2-1-2.2-2.2v-52.7c0-1.2,1-2.2,2.2-2.2h2.8v-31H2.7c-1.2,0-2.2-1-2.2-2.2v-24.7c0-1.2,1-2.2,2.2-2.2h2.8V62.9
	c0-33,26.8-59.8,59.8-59.8h285.3c33,0,59.8,26.8,59.8,59.8v131.2h3c1.1,0,2,0.9,2,2v89.1c0,1.1-0.9,2-2,2h-3v489.1
	c0,33-26.8,59.8-59.8,59.8H65.3z M58.7,11.1c-23.8,0-43.1,19.3-43.2,43.2v722.7c0,23.8,19.3,43.1,43.2,43.2h299.7
	c23.8,0,43.1-19.3,43.2-43.2V54.2c0-23.8-19.3-43.1-43.2-43.2H58.7z"/>
<path class="st2" d="M350.7,3.6c32.8,0,59.3,26.6,59.3,59.3v131.7h3.5c0.8,0,1.5,0.7,1.5,1.5v89.1c0,0.8-0.7,1.5-1.5,1.5H410v489.7
	c0,32.8-26.6,59.3-59.3,59.3H65.3C32.6,835.5,6,809,6,776.2V305.6H2.7c-0.9,0-1.7-0.7-1.7-1.7l0,0v-52.7c0-0.9,0.7-1.7,1.7-1.7H6
	v-18H2.7c-0.9,0-1.7-0.7-1.7-1.7v-52.7c0-0.9,0.7-1.7,1.7-1.7H6v-32H2.7c-0.9,0-1.7-0.7-1.7-1.7v-24.7c0-0.9,0.7-1.7,1.7-1.7H6V62.9
	C6,30.1,32.6,3.6,65.3,3.6H350.7 M58.7,820.6h299.7c24.1,0,43.6-19.6,43.7-43.7V54.2c0-24.1-19.6-43.6-43.7-43.7H58.7
	C34.6,10.6,15,30.1,15,54.2v722.7C15,801,34.6,820.5,58.7,820.6 M350.7,2.6H65.3C32,2.6,5,29.6,5,62.9v51.7H2.7
	c-1.5,0-2.7,1.2-2.7,2.6c0,0,0,0,0,0v24.7c0,1.5,1.2,2.7,2.6,2.7c0,0,0,0,0,0H5v30H2.7c-1.5,0-2.7,1.2-2.7,2.6c0,0,0,0,0,0v52.7
	c0,1.5,1.2,2.7,2.6,2.7c0,0,0,0,0,0H5v16H2.7c-1.5,0-2.7,1.2-2.7,2.6c0,0,0,0,0,0v52.7c0,1.5,1.2,2.7,2.6,2.7c0,0,0,0,0,0H5v469.7
	c0,33.3,27,60.3,60.3,60.3c0,0,0,0,0,0h285.3c33.3,0,60.3-27,60.3-60.3V287.6h2.5c1.4,0,2.5-1.1,2.5-2.5V196c0-1.4-1.1-2.5-2.5-2.5
	H411V62.9C411,29.6,384,2.6,350.7,2.6L350.7,2.6z M58.7,819.6c-23.6,0-42.7-19.1-42.7-42.7c0,0,0,0,0,0V54.2
	c0-23.6,19.1-42.7,42.7-42.7c0,0,0,0,0,0h299.7c23.6,0,42.7,19.1,42.7,42.6c0,0,0,0,0,0v722.7c0,23.6-19.1,42.7-42.7,42.7
	c0,0,0,0,0,0H58.7z"/>
<path class="st0" d="M184.8,31.1h45.4c0.7,0,1.3,0.6,1.3,1.3v2.4c0,0.7-0.6,1.3-1.3,1.3h-45.4c-0.7,0-1.3-0.6-1.3-1.3v-2.4
	C183.5,31.6,184.1,31.1,184.8,31.1z"/>
<path class="st2" d="M230.2,31.6c0.4,0,0.8,0.4,0.8,0.8v2.4c0,0.4-0.4,0.8-0.8,0.8h-45.4c-0.4,0-0.8-0.4-0.8-0.8v-2.4
	c0-0.4,0.4-0.8,0.8-0.8H230.2 M230.2,30.6h-45.4c-1,0-1.8,0.8-1.8,1.8v2.4c0,1,0.8,1.8,1.8,1.8h45.4c1,0,1.8-0.8,1.8-1.8v-2.4
	C232,31.4,231.2,30.6,230.2,30.6z"/>
<circle class="st0" cx="248" cy="33.6" r="4.5"/>
<path class="st2" d="M248,29.6c2.2,0,4,1.8,4,4s-1.8,4-4,4s-4-1.8-4-4S245.8,29.6,248,29.6 M248,28.6c-2.8,0-5,2.2-5,5s2.2,5,5,5
	c2.8,0,5-2.2,5-5S250.8,28.6,248,28.6z"/>
</svg>
