<svg id="Layer_2" data-name="Layer 2" xmlns="http://www.w3.org/2000/svg" viewBox="0 0 416 834"><defs><style>.cls-1{fill:#f5f7fa;}.cls-2{fill:#cbd2d9;}.cls-3{fill:#fff;}</style></defs><title>phone background</title><path class="cls-1" d="M65.33,832.5A48.89,48.89,0,0,1,16.5,783.67V62.33A48.89,48.89,0,0,1,65.33,13.5H112.5v-2h203v2h48.17A48.89,48.89,0,0,1,412.5,62.33V783.67a48.89,48.89,0,0,1-48.83,48.83Zm2-800A27.87,27.87,0,0,0,39.5,60.33V789.67A27.87,27.87,0,0,0,67.33,817.5H364.67a27.87,27.87,0,0,0,27.83-27.83V60.33A27.87,27.87,0,0,0,364.67,32.5H315.5v2a27,27,0,0,1-27,27h-149a27,27,0,0,1-27-27v-2Z" transform="translate(-7 -7)"/><path class="cls-2" d="M315,12v2h48.67A48.38,48.38,0,0,1,412,62.33V783.67A48.38,48.38,0,0,1,363.67,832H65.33A48.38,48.38,0,0,1,17,783.67V62.33A48.38,48.38,0,0,1,65.33,14H113V12H315M139.5,61A26.53,26.53,0,0,1,113,34.5V32H67.33A28.36,28.36,0,0,0,39,60.33V789.67A28.36,28.36,0,0,0,67.33,818H364.67A28.36,28.36,0,0,0,393,789.67V60.33A28.36,28.36,0,0,0,364.67,32H315v2.5A26.53,26.53,0,0,1,288.5,61h-149M316,11H112v2H65.33A49.34,49.34,0,0,0,16,62.33V783.67A49.34,49.34,0,0,0,65.33,833H363.67A49.34,49.34,0,0,0,413,783.67V62.33A49.34,49.34,0,0,0,363.67,13H316V11ZM139.5,62h149A27.5,27.5,0,0,0,316,34.5V33h48.67A27.34,27.34,0,0,1,392,60.33V789.67A27.34,27.34,0,0,1,364.67,817H67.33A27.34,27.34,0,0,1,40,789.67V60.33A27.34,27.34,0,0,1,67.33,33H112v1.5A27.5,27.5,0,0,0,139.5,62Z" transform="translate(-7 -7)"/><path class="cls-1" d="M72.33,840.5A59.9,59.9,0,0,1,12.5,780.67V310.5H9.67a2.17,2.17,0,0,1-2.17-2.17V255.67a2.17,2.17,0,0,1,2.17-2.17H12.5v-17H9.67a2.17,2.17,0,0,1-2.17-2.17V181.67a2.17,2.17,0,0,1,2.17-2.17H12.5v-31H9.67a2.17,2.17,0,0,1-2.17-2.17V121.67a2.17,2.17,0,0,1,2.17-2.17H12.5V67.33A59.9,59.9,0,0,1,72.33,7.5H357.67A59.9,59.9,0,0,1,417.5,67.33V198.5h3a2,2,0,0,1,2,2v89.08a2,2,0,0,1-2,2h-3V780.67a59.9,59.9,0,0,1-59.83,59.83Zm-6.66-825A43.21,43.21,0,0,0,22.5,58.67V781.33A43.21,43.21,0,0,0,65.67,824.5H365.33a43.21,43.21,0,0,0,43.17-43.17V58.67A43.21,43.21,0,0,0,365.33,15.5Z" transform="translate(-7 -7)"/><path class="cls-2" d="M357.67,8A59.4,59.4,0,0,1,417,67.33V199h3.54a1.46,1.46,0,0,1,1.46,1.46v89.08a1.46,1.46,0,0,1-1.46,1.46H417V780.67A59.4,59.4,0,0,1,357.67,840H72.33A59.4,59.4,0,0,1,13,780.67V310H9.67A1.67,1.67,0,0,1,8,308.33V255.67A1.67,1.67,0,0,1,9.67,254H13V236H9.67A1.67,1.67,0,0,1,8,234.33V181.67A1.67,1.67,0,0,1,9.67,180H13V148H9.67A1.67,1.67,0,0,1,8,146.33V121.67A1.67,1.67,0,0,1,9.67,120H13V67.33A59.4,59.4,0,0,1,72.33,8H357.67m-292,817H365.33A43.72,43.72,0,0,0,409,781.33V58.67A43.72,43.72,0,0,0,365.33,15H65.67A43.72,43.72,0,0,0,22,58.67V781.33A43.72,43.72,0,0,0,65.67,825m292-818H72.33A60.33,60.33,0,0,0,12,67.33V119H9.67A2.66,2.66,0,0,0,7,121.67v24.66A2.66,2.66,0,0,0,9.67,149H12v30H9.67A2.66,2.66,0,0,0,7,181.67v52.66A2.66,2.66,0,0,0,9.67,237H12v16H9.67A2.66,2.66,0,0,0,7,255.67v52.66A2.66,2.66,0,0,0,9.67,311H12V780.67A60.33,60.33,0,0,0,72.33,841H357.67A60.33,60.33,0,0,0,418,780.67V292h2.54a2.46,2.46,0,0,0,2.46-2.46V200.46a2.46,2.46,0,0,0-2.46-2.46H418V67.33A60.33,60.33,0,0,0,357.67,7Zm-292,817A42.66,42.66,0,0,1,23,781.33V58.67A42.66,42.66,0,0,1,65.67,16H365.33A42.66,42.66,0,0,1,408,58.67V781.33A42.66,42.66,0,0,1,365.33,824Z" transform="translate(-7 -7)"/><rect class="cls-3" x="183.5" y="28.5" width="48" height="5" rx="1.31"/><path class="cls-2" d="M237.19,36a.81.81,0,0,1,.81.81v2.38a.81.81,0,0,1-.81.81H191.81a.81.81,0,0,1-.81-.81V36.81a.81.81,0,0,1,.81-.81h45.38m0-1H191.81A1.81,1.81,0,0,0,190,36.81v2.38A1.81,1.81,0,0,0,191.81,41h45.38A1.81,1.81,0,0,0,239,39.19V36.81A1.81,1.81,0,0,0,237.19,35Z" transform="translate(-7 -7)"/><circle class="cls-3" cx="248" cy="31" r="4.5"/><path class="cls-2" d="M255,34a4,4,0,1,1-4,4,4,4,0,0,1,4-4m0-1a5,5,0,1,0,5,5,5,5,0,0,0-5-5Z" transform="translate(-7 -7)"/></svg>