<svg id="Layer_1" data-name="Layer 1" xmlns="http://www.w3.org/2000/svg" viewBox="0 0 512 434.38"><defs><style>.cls-1{fill:#98aeeb;}.cls-2{fill:#bed0f7;}.cls-3{fill:#fadb5f;}.cls-4{fill:#f7c948;}.cls-5{fill:#7b93db;}.cls-6{fill:#e0e8f9;}</style></defs><title>rain-lightning</title><path class="cls-1" d="M348.08,243.4h16.58a61.16,61.16,0,0,0,61.16-61.16c0-.37,0-.72,0-1.09H313.42a39.32,39.32,0,1,1,0-78.63,39.74,39.74,0,0,1,9.88,1.25,31.45,31.45,0,0,1,17.56-12.42,82.26,82.26,0,0,0-156.93,11.52,49.36,49.36,0,0,0-56.23,18.75A61.85,61.85,0,0,0,56,207.38a56,56,0,0,1,108.66,2.11,33.59,33.59,0,0,1,38.27,12.76,42.18,42.18,0,0,1,47.85,21.15h65" transform="translate(0 -38.81)"/><path class="cls-2" d="M448.81,330.2a8.92,8.92,0,0,1-7.12-14.28l15.63-20.79a8.92,8.92,0,1,1,14.26,10.71L456,326.64A8.91,8.91,0,0,1,448.81,330.2Z" transform="translate(0 -38.81)"/><path class="cls-2" d="M413,377.86a8.92,8.92,0,0,1-7.12-14.27l15.63-20.8a8.92,8.92,0,0,1,14.26,10.71l-15.63,20.8A8.91,8.91,0,0,1,413,377.86Z" transform="translate(0 -38.81)"/><path class="cls-2" d="M377.19,425.53a8.92,8.92,0,0,1-7.12-14.28l15.63-20.8A8.92,8.92,0,0,1,400,401.17L384.33,422A8.89,8.89,0,0,1,377.19,425.53Z" transform="translate(0 -38.81)"/><path class="cls-2" d="M341.38,473.19a8.92,8.92,0,0,1-7.12-14.27l15.62-20.8a8.92,8.92,0,0,1,14.26,10.71l-15.62,20.8A8.91,8.91,0,0,1,341.38,473.19Z" transform="translate(0 -38.81)"/><path class="cls-2" d="M85.15,377.86A8.91,8.91,0,0,1,78,363.59l15.63-20.8a8.92,8.92,0,0,1,14.26,10.71L92.28,374.3A8.91,8.91,0,0,1,85.15,377.86Z" transform="translate(0 -38.81)"/><path class="cls-2" d="M49.33,425.53a8.92,8.92,0,0,1-7.12-14.28l15.63-20.8A8.92,8.92,0,0,1,72.1,401.17L56.47,422A8.89,8.89,0,0,1,49.33,425.53Z" transform="translate(0 -38.81)"/><path class="cls-2" d="M13.52,473.19A8.92,8.92,0,0,1,6.4,458.92L22,438.12a8.91,8.91,0,0,1,14.25,10.71l-15.62,20.8A8.91,8.91,0,0,1,13.52,473.19Z" transform="translate(0 -38.81)"/><path class="cls-2" d="M286.16,330.2A8.92,8.92,0,0,1,279,315.92l15.63-20.79a8.91,8.91,0,1,1,14.25,10.71l-15.62,20.8A8.91,8.91,0,0,1,286.16,330.2Z" transform="translate(0 -38.81)"/><path class="cls-2" d="M250.35,377.86a8.92,8.92,0,0,1-7.12-14.27l15.63-20.8a8.92,8.92,0,0,1,14.26,10.71l-15.63,20.8A8.91,8.91,0,0,1,250.35,377.86Z" transform="translate(0 -38.81)"/><path class="cls-2" d="M214.54,425.53a8.92,8.92,0,0,1-7.12-14.28l15.63-20.8a8.92,8.92,0,0,1,14.26,10.72L221.68,422A8.89,8.89,0,0,1,214.54,425.53Z" transform="translate(0 -38.81)"/><path class="cls-2" d="M178.73,473.19a8.92,8.92,0,0,1-7.12-14.27l15.63-20.8a8.91,8.91,0,0,1,14.25,10.71l-15.62,20.8A8.91,8.91,0,0,1,178.73,473.19Z" transform="translate(0 -38.81)"/><path class="cls-2" d="M472.76,103.43a38.87,38.87,0,0,0-11.64,1.77c0-.59,0-1.18,0-1.77A52.27,52.27,0,0,0,357.92,91.86a31.39,31.39,0,0,0-35.73,11.91,39.76,39.76,0,0,0-9.89-1.25,39.32,39.32,0,1,0,0,78.63H472.76a38.86,38.86,0,1,0,0-77.72Z" transform="translate(0 -38.81)"/><path class="cls-3" d="M341,390a2.89,2.89,0,0,0-2.61-1.66h-.17l-24.44,3,17.54-49.66c1.78-5,1.74-6.61,1.1-7.51a1.76,1.76,0,0,0-1.46-.75c-.49,0-2,0-5.9,5.33L269.61,414a1.74,1.74,0,0,0-.11.18,2.89,2.89,0,0,0,2.56,4.23h.12l21.8-2L273.48,469a2.88,2.88,0,0,0,1.22,3.54,3,3,0,0,0,1.47.4,2.89,2.89,0,0,0,2.24-1.07l62.19-78.72A2.91,2.91,0,0,0,341,390Z" transform="translate(0 -38.81)"/><path class="cls-4" d="M272.06,418.4h.12l21.8-2L273.48,469a2.88,2.88,0,0,0,1.22,3.54l.22.11,39.54-69.8-21.8,2h-.12a2.9,2.9,0,0,1-2.56-4.23,1.74,1.74,0,0,1,.11-.18l41.78-66.65a1.7,1.7,0,0,0-.92-.26c-.49,0-2,0-5.9,5.33L269.61,414a1.74,1.74,0,0,0-.11.18,2.9,2.9,0,0,0,2.56,4.23Z" transform="translate(0 -38.81)"/><path class="cls-3" d="M511.73,390a2.89,2.89,0,0,0-2.61-1.66H509l-24.44,3,17.54-49.66c1.78-5,1.74-6.61,1.1-7.51a1.76,1.76,0,0,0-1.46-.75c-.49,0-2,0-5.9,5.33L440.35,414a1.74,1.74,0,0,0-.11.18,2.89,2.89,0,0,0,2.56,4.23h.12l21.8-2L444.22,469a2.88,2.88,0,0,0,1.22,3.54,3,3,0,0,0,1.47.4,2.89,2.89,0,0,0,2.24-1.07l62.19-78.72A2.91,2.91,0,0,0,511.73,390Z" transform="translate(0 -38.81)"/><path class="cls-4" d="M442.8,418.4h.12l21.8-2L444.22,469a2.87,2.87,0,0,0,1.22,3.54l.22.11,39.54-69.8-21.8,2h-.12a2.9,2.9,0,0,1-2.56-4.23,1.74,1.74,0,0,1,.11-.18l41.78-66.65a1.7,1.7,0,0,0-.92-.26c-.49,0-2,0-5.9,5.33L440.35,414a1.74,1.74,0,0,0-.11.18,2.89,2.89,0,0,0,2.56,4.23Z" transform="translate(0 -38.81)"/><path class="cls-3" d="M170.25,390a2.9,2.9,0,0,0-2.62-1.66h-.16l-24.44,3,17.54-49.66c1.78-5,1.74-6.61,1.1-7.51a1.76,1.76,0,0,0-1.46-.75c-.49,0-2,0-5.9,5.33L98.87,414a1.74,1.74,0,0,0-.11.18,2.89,2.89,0,0,0,2.56,4.23h.12l21.8-2L102.74,469A2.88,2.88,0,0,0,104,472.5a2.92,2.92,0,0,0,1.47.4,2.89,2.89,0,0,0,2.24-1.07l62.19-78.72A2.91,2.91,0,0,0,170.25,390Z" transform="translate(0 -38.81)"/><path class="cls-4" d="M101.32,418.4h.12l21.8-2L102.74,469A2.88,2.88,0,0,0,104,472.5l.22.11,39.54-69.8-21.8,2h-.12a2.9,2.9,0,0,1-2.56-4.23,1.74,1.74,0,0,1,.11-.18l41.78-66.65a1.7,1.7,0,0,0-.92-.26c-.49,0-2,0-5.9,5.33L98.87,414a1.74,1.74,0,0,0-.11.18,2.9,2.9,0,0,0,2.56,4.23Z" transform="translate(0 -38.81)"/><path class="cls-5" d="M120.46,120.21A61.83,61.83,0,0,0,56,207.38a56,56,0,0,1,49.26-41.28A136.81,136.81,0,0,1,120.46,120.21Z" transform="translate(0 -38.81)"/><path class="cls-6" d="M472.76,103.43a38.87,38.87,0,0,0-11.64,1.77c0-.59,0-1.18,0-1.77a52.26,52.26,0,0,0-99.32-22.75,96.81,96.81,0,0,0,42.39,100.47h68.53a38.86,38.86,0,1,0,0-77.72Z" transform="translate(0 -38.81)"/><path class="cls-6" d="M41.62,220.76a41.74,41.74,0,0,1,12.47,1.9c0-.63-.05-1.26-.05-1.9a56,56,0,0,1,110.57-12.39,33.59,33.59,0,0,1,38.27,12.76A42.12,42.12,0,1,1,213.47,304H41.62a41.63,41.63,0,0,1,0-83.25Z" transform="translate(0 -38.81)"/><path class="cls-2" d="M103.83,185.84a139.28,139.28,0,0,1,1.58-21,56,56,0,0,0-51.33,55.78c0,.64,0,1.27.05,1.9A41.63,41.63,0,1,0,41.67,303.9h129A137.57,137.57,0,0,1,103.83,185.84Z" transform="translate(0 -38.81)"/></svg>