<svg id="Layer_1" data-name="Layer 1" xmlns="http://www.w3.org/2000/svg" viewBox="0 0 493.76 512"><defs><style>.cls-1{fill:#fadb5f;}.cls-2{fill:#f7c948;}.cls-3{fill:#de911d;}.cls-4{fill:#f0b429;}.cls-5{fill:#bed0f7;}.cls-6{fill:#7b93db;}.cls-7{fill:#98aeeb;}.cls-8{fill:#e0e8f9;}</style></defs><title>rain-sun</title><path class="cls-1" d="M200,53.28A8.33,8.33,0,0,1,191.65,45V8.32a8.33,8.33,0,0,1,16.65,0V45A8.33,8.33,0,0,1,200,53.28Z" transform="translate(-9.12)"/><path class="cls-1" d="M127,72.82a8.3,8.3,0,0,1-7.21-4.16L101.5,36.94a8.32,8.32,0,1,1,14.41-8.32l18.32,31.72A8.32,8.32,0,0,1,127,72.82Z" transform="translate(-9.12)"/><path class="cls-1" d="M73.61,126.22a8.23,8.23,0,0,1-4.15-1.11L37.74,106.79a8.32,8.32,0,1,1,8.32-14.41L77.78,110.7a8.32,8.32,0,0,1-4.17,15.52Z" transform="translate(-9.12)"/><path class="cls-1" d="M54.07,199.17H17.44a8.32,8.32,0,0,1,0-16.64H54.07a8.32,8.32,0,1,1,0,16.64Z" transform="translate(-9.12)"/><path class="cls-1" d="M41.9,290.44a8.32,8.32,0,0,1-4.16-15.53l31.72-18.32A8.32,8.32,0,0,1,77.78,271L46.06,289.32A8.26,8.26,0,0,1,41.9,290.44Z" transform="translate(-9.12)"/><path class="cls-1" d="M326.33,126.22a8.32,8.32,0,0,1-4.17-15.53l31.72-18.31a8.32,8.32,0,0,1,8.33,14.41l-31.73,18.32A8.23,8.23,0,0,1,326.33,126.22Z" transform="translate(-9.12)"/><path class="cls-1" d="M272.91,72.82a8.32,8.32,0,0,1-7.2-12.48L284,28.62a8.32,8.32,0,1,1,14.41,8.32L280.13,68.66A8.32,8.32,0,0,1,272.91,72.82Z" transform="translate(-9.12)"/><path class="cls-2" d="M290,279.68c.46-.47.91-.93,1.36-1.41l.85-.9,1.25-1.38.86-1,1.19-1.38c.29-.33.57-.66.85-1s.77-.92,1.14-1.39l.83-1c.38-.48.75-1,1.12-1.45l.79-1,1.12-1.52.72-1,1.17-1.67c.2-.3.41-.59.61-.88.5-.74,1-1.49,1.47-2.24l.24-.36q.84-1.31,1.65-2.64l.48-.82c.37-.62.74-1.24,1.1-1.87l.59-1c.31-.56.62-1.11.92-1.68.21-.38.41-.77.61-1.16s.56-1.07.84-1.61l.6-1.21c.27-.54.53-1.07.78-1.61s.39-.83.58-1.24.5-1.08.74-1.63.37-.83.55-1.26.47-1.1.69-1.65.35-.84.52-1.26c.22-.57.45-1.14.67-1.72.15-.41.31-.81.46-1.23.23-.61.44-1.22.66-1.84l.4-1.14c.25-.71.48-1.44.71-2.16.09-.29.19-.57.28-.85.31-1,.61-2,.9-3,.07-.24.13-.47.19-.71.22-.79.44-1.58.64-2.37.1-.38.19-.77.28-1.15.16-.65.32-1.31.47-2,.1-.42.19-.85.28-1.28q.21-.93.39-1.86c.09-.45.18-.9.26-1.35.12-.61.23-1.22.34-1.83s.15-.92.22-1.39.2-1.22.29-1.83.13-.93.19-1.39c.09-.62.16-1.24.24-1.86.05-.46.11-.93.15-1.39.07-.64.13-1.27.19-1.9l.12-1.37c.05-.67.1-1.33.14-2,0-.43.06-.86.08-1.29q.06-1.11.09-2.22c0-.36,0-.73.05-1.1,0-1.1,0-2.21,0-3.33A122.86,122.86,0,0,0,202.06,71h0A122.74,122.74,0,0,0,79.18,193.86c0,1.12,0,2.23,0,3.33,0,.37,0,.74,0,1.1q0,1.11.09,2.22c0,.43.06.86.08,1.29,0,.67.09,1.33.14,2l.12,1.37c.06.63.12,1.26.19,1.9,0,.46.1.93.16,1.39.07.62.15,1.24.23,1.86.06.46.13.93.2,1.39s.18,1.22.28,1.83.15.93.23,1.39.22,1.22.33,1.83c.09.45.17.9.26,1.35.12.62.26,1.24.39,1.86.09.43.18.86.28,1.28.15.66.31,1.32.47,2,.09.38.18.77.28,1.15.2.79.42,1.59.64,2.37.06.24.12.47.19.71.29,1,.59,2,.9,3,.09.28.19.56.28.85.23.72.47,1.45.71,2.16l.4,1.14c.22.62.43,1.23.66,1.84.15.42.31.82.47,1.23.21.57.44,1.15.66,1.72.17.42.34.84.52,1.26l.69,1.65.56,1.26c.24.55.48,1.09.73,1.63s.38.83.58,1.24.52,1.07.78,1.61l.6,1.21.84,1.61c.2.39.4.78.61,1.16.3.56.61,1.12.92,1.68l.59,1c.36.63.73,1.25,1.1,1.87l.48.82q.81,1.33,1.65,2.64l.24.36c.48.75,1,1.5,1.47,2.24.21.29.41.58.61.88l1.17,1.67.72,1,1.13,1.52c.25.34.52.68.78,1,.37.49.74,1,1.12,1.45l.83,1,1.14,1.39c.28.34.57.67.85,1l1.19,1.38.86,1,1.25,1.38.85.9c.45.48.9.94,1.36,1.41l.8.82c.51.52,1,1,1.55,1.53l.66.64c.74.71,1.49,1.42,2.25,2.11h0l2.36,2.09.06.05h0a123.07,123.07,0,0,0,17.7,12.72l.08.06.47.27c.83.48,1.66,1,2.5,1.42l.66.37c1.05.57,2.11,1.13,3.17,1.67l.76.38c.83.42,1.68.83,2.53,1.23l1,.46c.9.41,1.8.82,2.71,1.21l.61.27c1.11.47,2.23.92,3.35,1.36l.85.32c.87.34,1.74.66,2.62,1l1,.37c1,.33,2,.66,2.95,1l.54.18c1.16.36,2.32.7,3.5,1l.93.25c.9.25,1.8.48,2.7.7l1.07.27c1.06.25,2.13.48,3.19.71l.43.09c1.21.25,2.42.47,3.64.69l1,.16c.92.16,1.84.3,2.77.43.37.05.73.11,1.1.15q1.74.24,3.48.42l.25,0c1.25.13,2.5.23,3.76.32l1.08.07c.94.06,1.89.11,2.84.14l1.11.05c1.27,0,2.55.06,3.83.06h0c1.28,0,2.56,0,3.83-.06l1.11-.05c1,0,1.9-.08,2.85-.14l1.08-.07c1.25-.09,2.51-.19,3.75-.32l.25,0c1.17-.12,2.33-.26,3.48-.41l1.1-.16c.93-.13,1.86-.27,2.78-.43l1-.16c1.22-.22,2.43-.44,3.63-.69l.43-.09,3.19-.71,1.07-.27c.91-.22,1.81-.45,2.71-.7l.93-.25c1.17-.33,2.34-.67,3.5-1l.54-.18c1-.31,2-.64,2.94-1l1-.37c.88-.31,1.76-.63,2.63-1l.85-.32c1.12-.44,2.23-.89,3.34-1.36l.61-.27c.92-.39,1.82-.8,2.72-1.21l1-.46c.85-.4,1.69-.81,2.53-1.23l.75-.38c1.07-.54,2.13-1.1,3.18-1.67l.66-.37c.84-.47,1.67-.94,2.49-1.42l.47-.27.08-.06a123.16,123.16,0,0,0,17.71-12.72h0l.06-.05,2.36-2.09h0c.76-.69,1.52-1.4,2.26-2.11l.66-.64c.52-.51,1-1,1.55-1.53Z" transform="translate(-9.12)"/><path class="cls-1" d="M275.57,95.4A122.34,122.34,0,0,0,202.05,71h0a123.57,123.57,0,0,0-21.56,1.9A134.87,134.87,0,0,0,252.33,306l1.08-.48,1-.46c.85-.4,1.69-.81,2.53-1.23l.76-.38c1.06-.54,2.12-1.1,3.17-1.67l.66-.37c.84-.47,1.67-.94,2.49-1.42l.48-.27.08-.06a123.63,123.63,0,0,0,17.7-12.72h0l.06-.05,2.36-2.09h0c.76-.69,1.51-1.4,2.25-2.11l.66-.64c.52-.51,1-1,1.55-1.53l.8-.82c.46-.47.91-.93,1.36-1.41l.84-.9q.65-.69,1.26-1.38l.86-1,1.19-1.38.84-1c.39-.46.77-.92,1.15-1.39l.83-1c.38-.48.75-1,1.12-1.45l.78-1,1.13-1.52.72-1,1.17-1.67c.2-.3.41-.59.61-.88.5-.74,1-1.49,1.47-2.24l.24-.36q.84-1.31,1.65-2.64l.48-.82c.37-.62.74-1.24,1.1-1.87l.59-1c.31-.56.62-1.11.92-1.68.21-.38.41-.77.61-1.16l.84-1.61.6-1.21c.26-.54.53-1.07.78-1.61s.39-.83.58-1.24.49-1.08.74-1.63l.55-1.26.69-1.65.52-1.26c.22-.57.45-1.14.66-1.72.16-.41.32-.81.47-1.23.23-.61.44-1.22.66-1.84.13-.38.27-.75.4-1.14.24-.71.48-1.44.71-2.16l.28-.85c.31-1,.61-2,.9-3,.07-.24.13-.47.19-.7.22-.79.43-1.59.64-2.38.1-.38.18-.76.28-1.15.16-.65.32-1.31.47-2,.1-.42.19-.85.28-1.28.13-.62.27-1.24.39-1.86.09-.45.18-.9.26-1.35q.18-.91.33-1.83c.08-.46.16-.92.23-1.38.1-.61.2-1.22.28-1.84.07-.46.14-.93.2-1.39.08-.62.16-1.24.23-1.86.06-.46.11-.92.16-1.39.07-.64.13-1.27.19-1.9l.12-1.37c.05-.67.1-1.33.14-2,0-.43.06-.86.08-1.29q.06-1.11.09-2.22c0-.36,0-.73,0-1.09,0-1.11.05-2.22.05-3.33A122.58,122.58,0,0,0,275.57,95.4Z" transform="translate(-9.12)"/><path class="cls-3" d="M294.8,190.68l0-.8c-.09-2.11-.25-4.21-.48-6.28l-.09-.77c-.24-2.08-.56-4.13-.94-6.16-.05-.25-.09-.5-.14-.74q-.6-3-1.39-6c-.06-.24-.13-.47-.19-.71q-.81-3-1.82-5.84l-.24-.68c-.68-1.92-1.42-3.8-2.23-5.66-.09-.21-.19-.43-.28-.65-.82-1.84-1.69-3.66-2.63-5.44-.11-.21-.21-.42-.33-.63q-1.41-2.66-3-5.21l-.38-.61a93.53,93.53,0,0,0-16-19.16h0l-.07-.06-.76-.68-.85-.76-.8-.68-.85-.72-.82-.67-.86-.69-.85-.66-.86-.66-.87-.65-.87-.63-.89-.63-.89-.62-.9-.6-.91-.6c-.3-.2-.6-.4-.91-.59l-.93-.58-.91-.56-1-.56-.92-.54-1-.54-.92-.51-1-.53c-.31-.16-.61-.33-.92-.48L243,110.6c-.3-.16-.6-.3-.9-.45l-1.14-.53c-.28-.13-.56-.27-.84-.39q-.72-.33-1.44-.63l-.57-.25-2-.82-.78-.3-1.28-.49-.88-.31c-.4-.14-.8-.29-1.2-.42l-.94-.31-1.17-.38-1-.29-1.16-.35-1-.27-1.16-.32-1-.25-1.16-.29-1-.23-1.18-.26-1-.21-1.19-.22-1-.19-1.21-.2-1-.16-1.24-.17-1-.13c-.42-.06-.84-.1-1.26-.15l-1-.11-1.3-.11-1-.08c-.45,0-.91-.07-1.36-.09l-.93-.06-1.53-.05c-.26,0-.52,0-.78,0-.77,0-1.54,0-2.32,0h0c-.78,0-1.55,0-2.32,0-.26,0-.52,0-.78,0l-1.53.05-.93.06c-.45,0-.91.05-1.36.09l-1,.08-1.3.11-1,.11c-.42.05-.84.09-1.26.15l-1,.13-1.24.17-1,.16-1.21.2-1,.19-1.19.22-1,.21-1.18.26-1,.23-1.16.29-1,.25-1.16.32-1,.27-1.16.35-1,.29-1.17.38-.94.31-1.2.42-.88.31-1.28.49-.78.3-2,.82-.57.25c-.48.21-1,.41-1.44.63-.28.12-.56.26-.84.39l-1.14.53-.91.45c-.35.17-.7.34-1,.52s-.62.32-.93.48l-1,.53-.92.51-1,.54-.92.54-.95.56-.92.56-.93.58c-.31.19-.61.39-.91.59l-.91.6-.9.6-.89.62-.89.63-.87.63-.87.65-.86.66-.85.66-.86.69-.82.67-.85.72-.8.69c-.29.24-.57.5-.85.75l-.76.68-.07.06h0a93.53,93.53,0,0,0-16,19.16l-.38.61q-1.58,2.55-3,5.21-.18.31-.33.63c-.94,1.78-1.81,3.6-2.63,5.44l-.28.66c-.8,1.85-1.55,3.74-2.23,5.65l-.24.68q-1,2.88-1.82,5.84c-.06.24-.13.48-.19.72-.53,2-1,4-1.39,6,0,.25-.09.5-.14.74q-.57,3-.94,6.16l-.09.77c-.23,2.08-.39,4.17-.48,6.29l0,.79c0,1.06-.06,2.12-.06,3.19,0,3.2.17,6.37.48,9.49.16,1.56.36,3.1.59,4.64a93.84,93.84,0,0,0,2.45,11.28,92.85,92.85,0,0,0,89.29,67.39h0A92.69,92.69,0,0,0,293.78,208c.23-1.54.43-3.08.59-4.64a93.06,93.06,0,0,0,.48-9.49C294.86,192.8,294.83,191.74,294.8,190.68Z" transform="translate(-9.12)"/><path class="cls-4" d="M294.77,189.88c-.09-2.11-.25-4.21-.48-6.28l-.09-.77q-.37-3.12-.94-6.16c-.05-.25-.09-.5-.14-.74q-.6-3-1.39-6c-.06-.24-.13-.47-.19-.71q-.81-3-1.82-5.84l-.24-.68c-.68-1.92-1.42-3.8-2.23-5.66-.09-.21-.19-.43-.28-.65-.82-1.85-1.69-3.66-2.63-5.44-.11-.21-.21-.42-.33-.63q-1.41-2.66-3-5.21l-.38-.61a93.26,93.26,0,0,0-16-19.16h0l-.07-.06c-.25-.23-.5-.46-.76-.68l-.85-.76-.8-.68-.85-.72-.82-.67-.86-.69-.85-.66-.86-.66-.87-.65-.87-.63-.89-.63-.89-.62-.9-.6c-.3-.21-.61-.41-.91-.6s-.6-.4-.91-.59l-.93-.58-.92-.56-1-.56-.92-.54-1-.54-.93-.51c-.33-.18-.66-.36-1-.53s-.62-.33-.93-.48l-1.05-.53-.9-.44-1.14-.53c-.28-.13-.56-.27-.85-.39-.47-.22-1-.43-1.43-.63l-.57-.25c-.67-.28-1.34-.56-2-.82l-.78-.3-1.28-.49-.89-.31c-.39-.14-.79-.29-1.19-.42l-.94-.31-1.17-.38-1-.3-1.16-.34-1-.28-1.16-.31-1-.25-1.16-.29-1-.23-1.18-.26-1-.21-1.18-.22-1-.19-1.21-.2-1-.16-1.24-.17-1-.13c-.42-.06-.84-.1-1.26-.15l-1-.11-1.3-.11-1-.08c-.45,0-.91-.07-1.36-.09l-.93-.06-1.53-.06-.79,0q-1.14,0-2.31,0h0c-.78,0-1.55,0-2.32,0l-.78,0-1.53.06-.93.06-1.37.09-1,.08-1.3.11-1,.11c-.42.05-.84.09-1.26.15l-1,.13-1.24.17-1,.16-1.21.2-1,.19-1.19.22-1,.21-1.18.26-1,.23-1.17.29-1,.25-1.16.31-1,.28-1.16.34-1,.3-1.17.38-.94.31c-.4.13-.8.28-1.2.42l-.88.31-1.28.49-.78.3c-.67.26-1.34.54-2,.82l-.57.25q-.72.3-1.44.63c-.28.12-.56.26-.84.39l-1.14.53-.91.44-1.05.53c-.31.15-.61.32-.92.48l-1,.53c-.31.16-.61.34-.92.51l-1,.54-.92.54-1,.56-.91.56-.93.58c-.31.19-.61.39-.91.59s-.61.39-.91.6l-.9.6-.89.62-.89.63-.19.14a134.95,134.95,0,0,0,51.79,168c.83,0,1.66.05,2.5.05h0A92.69,92.69,0,0,0,293.78,208c.23-1.54.43-3.09.59-4.65a92.86,92.86,0,0,0,.48-9.48c0-1.07,0-2.14-.06-3.19C294.79,190.41,294.78,190.15,294.77,189.88Z" transform="translate(-9.12)"/><path class="cls-5" d="M468.5,374a8.61,8.61,0,0,1-6.88-13.78l15.08-20.07a8.61,8.61,0,1,1,13.76,10.34l-15.08,20.07A8.59,8.59,0,0,1,468.5,374Z" transform="translate(-9.12)"/><path class="cls-5" d="M433.94,420a8.61,8.61,0,0,1-6.87-13.78l15.07-20.07A8.61,8.61,0,1,1,455.9,396.5l-15.07,20.07A8.61,8.61,0,0,1,433.94,420Z" transform="translate(-9.12)"/><path class="cls-5" d="M399.38,466a8.6,8.6,0,0,1-6.87-13.77l15.08-20.07a8.6,8.6,0,0,1,13.76,10.33l-15.08,20.08A8.58,8.58,0,0,1,399.38,466Z" transform="translate(-9.12)"/><path class="cls-5" d="M364.83,512A8.61,8.61,0,0,1,358,498.23L373,478.16a8.6,8.6,0,0,1,13.76,10.33l-15.08,20.08A8.61,8.61,0,0,1,364.83,512Z" transform="translate(-9.12)"/><path class="cls-5" d="M400.76,374a8.61,8.61,0,0,1-6.87-13.78L409,340.16a8.61,8.61,0,1,1,13.76,10.34l-15.08,20.07A8.59,8.59,0,0,1,400.76,374Z" transform="translate(-9.12)"/><path class="cls-5" d="M366.21,420a8.5,8.5,0,0,1-5.16-1.73,8.61,8.61,0,0,1-1.72-12l15.08-20.07a8.61,8.61,0,1,1,13.76,10.34l-15.08,20.07A8.59,8.59,0,0,1,366.21,420Z" transform="translate(-9.12)"/><path class="cls-5" d="M331.65,466a8.6,8.6,0,0,1-6.88-13.77l15.08-20.07a8.61,8.61,0,1,1,13.76,10.34l-15.07,20.07A8.61,8.61,0,0,1,331.65,466Z" transform="translate(-9.12)"/><path class="cls-5" d="M297.09,512a8.61,8.61,0,0,1-6.87-13.77l15.08-20.07a8.6,8.6,0,0,1,13.76,10.33L304,508.57A8.63,8.63,0,0,1,297.09,512Z" transform="translate(-9.12)"/><path class="cls-5" d="M263.92,466A8.6,8.6,0,0,1,257,452.23l15.08-20.07a8.61,8.61,0,1,1,13.76,10.34L270.8,462.57A8.58,8.58,0,0,1,263.92,466Z" transform="translate(-9.12)"/><path class="cls-5" d="M229.36,512a8.6,8.6,0,0,1-6.88-13.77l15.08-20.07a8.6,8.6,0,1,1,13.76,10.33l-15.08,20.07A8.59,8.59,0,0,1,229.36,512Z" transform="translate(-9.12)"/><path class="cls-5" d="M196.18,466a8.6,8.6,0,0,1-6.87-13.77l15.08-20.07a8.61,8.61,0,1,1,13.76,10.34l-15.08,20.07A8.58,8.58,0,0,1,196.18,466Z" transform="translate(-9.12)"/><path class="cls-5" d="M161.63,512a8.6,8.6,0,0,1-6.88-13.77l15.08-20.07a8.6,8.6,0,1,1,13.76,10.33l-15.08,20.07A8.59,8.59,0,0,1,161.63,512Z" transform="translate(-9.12)"/><path class="cls-5" d="M128.45,466a8.6,8.6,0,0,1-6.87-13.77l15.08-20.07a8.6,8.6,0,1,1,13.75,10.34l-15.07,20.07A8.6,8.6,0,0,1,128.45,466Z" transform="translate(-9.12)"/><path class="cls-5" d="M93.89,512A8.6,8.6,0,0,1,87,498.23l15.08-20.07a8.6,8.6,0,1,1,13.76,10.33l-15.08,20.07A8.59,8.59,0,0,1,93.89,512Z" transform="translate(-9.12)"/><path class="cls-5" d="M60.72,466a8.6,8.6,0,0,1-6.88-13.77l15.08-20.07a8.6,8.6,0,0,1,13.76,10.33L67.6,462.57A8.58,8.58,0,0,1,60.72,466Z" transform="translate(-9.12)"/><path class="cls-5" d="M26.16,512a8.61,8.61,0,0,1-6.88-13.77l15.08-20.07a8.6,8.6,0,0,1,13.76,10.33L33,508.57A8.61,8.61,0,0,1,26.16,512Z" transform="translate(-9.12)"/><path class="cls-5" d="M450.08,208.16a52.88,52.88,0,0,0-13.28,1.69,42.1,42.1,0,0,0-48-16,70.19,70.19,0,0,0-138.64,15.53c0,.8,0,1.6.06,2.38A52.24,52.24,0,0,0,184.51,247a70.19,70.19,0,0,1,107,59.79c0,.8,0,1.6-.06,2.39a52.16,52.16,0,0,1,41.71,4.61h117a52.8,52.8,0,1,0,0-105.6Z" transform="translate(-9.12)"/><path class="cls-6" d="M307,305.69a52,52,0,0,0-15.62,2.38c0-.79.06-1.58.06-2.38a70.2,70.2,0,0,0-138.65-15.53,42.11,42.11,0,0,0-48,16A52.81,52.81,0,1,0,91.56,410.07H307a52.19,52.19,0,1,0,0-104.38Z" transform="translate(-9.12)"/><path class="cls-7" d="M307,305.69a52,52,0,0,0-15.62,2.38c0-.79.06-1.58.06-2.38a70.2,70.2,0,0,0-138.65-15.53,42.07,42.07,0,0,0-25.31-.43,196.39,196.39,0,0,0,133.9,120.34H307a52.19,52.19,0,1,0,0-104.38Z" transform="translate(-9.12)"/><path class="cls-8" d="M450.08,208.16a52.88,52.88,0,0,0-13.28,1.69,42.1,42.1,0,0,0-48-16,70.17,70.17,0,0,0-113.5-38.28v.07a163.83,163.83,0,0,0,121,158.12h53.76a52.8,52.8,0,1,0,0-105.6Z" transform="translate(-9.12)"/></svg>