<svg id="Layer_1" data-name="Layer 1" xmlns="http://www.w3.org/2000/svg" viewBox="0 0 512 498.45"><defs><style>.cls-1{fill:#98aeeb;}.cls-2{fill:#bed0f7;}.cls-3{fill:#7b93db;}</style></defs><title>rain</title><path class="cls-1" d="M430.15,116.87a82,82,0,0,0-24.51,3.73c0-1.24.1-2.48.1-3.73a109.62,109.62,0,0,0-24.62-69.39L360.28,27.74a110.09,110.09,0,0,0-172,64.77,66.05,66.05,0,0,0-75.25,25.09,82.81,82.81,0,1,0-20.83,163H430.15a81.85,81.85,0,1,0,0-163.7Z" transform="translate(0 -6.78)"/><path class="cls-2" d="M457.77,365.14a8.74,8.74,0,0,1-7-14l15.31-20.37a8.74,8.74,0,1,1,14,10.49l-15.31,20.37A8.72,8.72,0,0,1,457.77,365.14Z" transform="translate(0 -6.78)"/><path class="cls-2" d="M422.69,411.83a8.74,8.74,0,0,1-7-14L431,377.48A8.73,8.73,0,1,1,445,388l-15.3,20.38A8.73,8.73,0,0,1,422.69,411.83Z" transform="translate(0 -6.78)"/><path class="cls-2" d="M387.61,458.53a8.74,8.74,0,0,1-7-14l15.31-20.38a8.73,8.73,0,1,1,14,10.5L394.6,455A8.74,8.74,0,0,1,387.61,458.53Z" transform="translate(0 -6.78)"/><path class="cls-2" d="M352.52,505.22a8.73,8.73,0,0,1-7-14l15.31-20.37a8.73,8.73,0,1,1,14,10.49l-15.31,20.38A8.71,8.71,0,0,1,352.52,505.22Z" transform="translate(0 -6.78)"/><path class="cls-2" d="M114,365.14a8.74,8.74,0,0,1-7-14l15.31-20.37a8.74,8.74,0,1,1,14,10.49L121,361.65A8.7,8.7,0,0,1,114,365.14Z" transform="translate(0 -6.78)"/><path class="cls-2" d="M78.89,411.83a8.73,8.73,0,0,1-7-14l15.3-20.37a8.74,8.74,0,0,1,14,10.49L85.88,408.35A8.72,8.72,0,0,1,78.89,411.83Z" transform="translate(0 -6.78)"/><path class="cls-2" d="M43.81,458.53a8.74,8.74,0,0,1-7-14l15.31-20.38a8.74,8.74,0,1,1,14,10.5L50.8,455A8.73,8.73,0,0,1,43.81,458.53Z" transform="translate(0 -6.78)"/><path class="cls-2" d="M8.73,505.22a8.74,8.74,0,0,1-7-14l15.31-20.37a8.74,8.74,0,0,1,14,10.49L15.72,501.74A8.73,8.73,0,0,1,8.73,505.22Z" transform="translate(0 -6.78)"/><path class="cls-2" d="M182.73,365.14a8.74,8.74,0,0,1-7-14l15.31-20.37a8.74,8.74,0,0,1,14,10.49l-15.31,20.37A8.72,8.72,0,0,1,182.73,365.14Z" transform="translate(0 -6.78)"/><path class="cls-2" d="M147.65,411.83a8.74,8.74,0,0,1-7-14L156,377.48A8.74,8.74,0,1,1,170,388l-15.31,20.38A8.73,8.73,0,0,1,147.65,411.83Z" transform="translate(0 -6.78)"/><path class="cls-2" d="M112.57,458.53a8.74,8.74,0,0,1-7-14l15.31-20.38a8.74,8.74,0,1,1,14,10.5L119.56,455A8.74,8.74,0,0,1,112.57,458.53Z" transform="translate(0 -6.78)"/><path class="cls-2" d="M77.49,505.22a8.74,8.74,0,0,1-7-14l15.31-20.37a8.74,8.74,0,0,1,14,10.49L84.48,501.74A8.73,8.73,0,0,1,77.49,505.22Z" transform="translate(0 -6.78)"/><path class="cls-2" d="M251.49,365.14a8.74,8.74,0,0,1-7-14l15.31-20.37a8.74,8.74,0,0,1,14,10.49l-15.31,20.37A8.72,8.72,0,0,1,251.49,365.14Z" transform="translate(0 -6.78)"/><path class="cls-2" d="M216.41,411.83a8.74,8.74,0,0,1-7-14l15.31-20.37a8.74,8.74,0,0,1,14,10.49L223.4,408.35A8.73,8.73,0,0,1,216.41,411.83Z" transform="translate(0 -6.78)"/><path class="cls-2" d="M181.33,458.53a8.74,8.74,0,0,1-7-14l15.31-20.38a8.74,8.74,0,1,1,14,10.5L188.32,455A8.74,8.74,0,0,1,181.33,458.53Z" transform="translate(0 -6.78)"/><path class="cls-2" d="M146.25,505.22a8.74,8.74,0,0,1-7-14l15.31-20.37a8.74,8.74,0,1,1,14,10.49l-15.31,20.38A8.73,8.73,0,0,1,146.25,505.22Z" transform="translate(0 -6.78)"/><path class="cls-2" d="M320.25,365.14a8.74,8.74,0,0,1-7-14l15.31-20.37a8.74,8.74,0,0,1,14,10.49l-15.31,20.37A8.72,8.72,0,0,1,320.25,365.14Z" transform="translate(0 -6.78)"/><path class="cls-2" d="M285.17,411.83a8.74,8.74,0,0,1-7-14l15.31-20.37a8.74,8.74,0,0,1,14,10.49l-15.31,20.38A8.73,8.73,0,0,1,285.17,411.83Z" transform="translate(0 -6.78)"/><path class="cls-2" d="M250.09,458.53a8.74,8.74,0,0,1-7-14l15.31-20.38a8.74,8.74,0,1,1,14,10.5L257.08,455A8.74,8.74,0,0,1,250.09,458.53Z" transform="translate(0 -6.78)"/><path class="cls-2" d="M215,505.22a8.74,8.74,0,0,1-7-14l15.31-20.37a8.74,8.74,0,0,1,14,10.49L222,501.74A8.73,8.73,0,0,1,215,505.22Z" transform="translate(0 -6.78)"/><path class="cls-2" d="M389,365.14a8.74,8.74,0,0,1-7-14l15.31-20.37a8.74,8.74,0,1,1,14,10.49L396,361.65A8.72,8.72,0,0,1,389,365.14Z" transform="translate(0 -6.78)"/><path class="cls-2" d="M353.93,411.83a8.74,8.74,0,0,1-7-14l15.31-20.37a8.73,8.73,0,1,1,14,10.49l-15.3,20.38A8.73,8.73,0,0,1,353.93,411.83Z" transform="translate(0 -6.78)"/><path class="cls-2" d="M318.85,458.53a8.74,8.74,0,0,1-7-14l15.31-20.38a8.74,8.74,0,0,1,14,10.5L325.84,455A8.74,8.74,0,0,1,318.85,458.53Z" transform="translate(0 -6.78)"/><path class="cls-2" d="M283.77,505.22a8.74,8.74,0,0,1-7-14l15.31-20.37a8.74,8.74,0,0,1,14,10.49l-15.31,20.38A8.73,8.73,0,0,1,283.77,505.22Z" transform="translate(0 -6.78)"/><path class="cls-3" d="M183.36,127.18a189.12,189.12,0,0,1,3.21-34.72,66,66,0,0,0-73.52,25.63,82.81,82.81,0,1,0-20.83,163H263.11A188.09,188.09,0,0,1,183.36,127.18Z" transform="translate(0 -6.78)"/></svg>