<?xml version="1.0" encoding="utf-8"?>
<!-- Generator: Adobe Illustrator 24.0.2, SVG Export Plug-In . SVG Version: 6.00 Build 0)  -->
<svg version="1.1" id="Layer_1" xmlns="http://www.w3.org/2000/svg" xmlns:xlink="http://www.w3.org/1999/xlink" x="0px" y="0px"
	 viewBox="0 0 512 498.5" style="enable-background:new 0 0 512 498.5;" xml:space="preserve">
<style type="text/css">
	.st0{fill:#98AEEB;}
	.st1{fill:#BED0F7;}
	.st2{fill:#7B93DB;}
</style>
<title>rain</title>
<path class="st0" d="M430.1,110.1c-8.3,0-16.6,1.3-24.5,3.7c0-1.2,0.1-2.5,0.1-3.7c0-25.3-8.7-49.8-24.6-69.4L360.3,21
	C311.1-14.7,242.2-3.8,206.5,45.4c-8.7,12.1-15,25.8-18.2,40.3c-27.9-9.3-58.5,0.9-75.3,25.1c-44.3-11.4-89.4,15.2-100.9,59.5
	s15.2,89.4,59.5,100.9c6.7,1.7,13.6,2.6,20.5,2.6h338c45.2,0,81.9-36.6,81.9-81.8S475.4,110.1,430.1,110.1
	C430.2,110.1,430.2,110.1,430.1,110.1L430.1,110.1z"/>
<path class="st1" d="M457.8,358.4c-4.8,0-8.7-3.9-8.8-8.7c0-1.9,0.6-3.8,1.8-5.3l15.3-20.4c2.9-3.9,8.4-4.7,12.2-1.8
	s4.7,8.4,1.8,12.2l0,0l-15.3,20.4C463.1,357.1,460.5,358.4,457.8,358.4z"/>
<path class="st1" d="M422.7,405c-4.8,0-8.7-3.9-8.8-8.7c0-1.9,0.6-3.8,1.8-5.3l15.3-20.3c2.9-3.9,8.4-4.6,12.3-1.7
	c3.9,2.9,4.6,8.4,1.7,12.3l0,0l-15.3,20.4C428,403.8,425.4,405.1,422.7,405z"/>
<path class="st1" d="M387.6,451.8c-4.8,0-8.7-3.9-8.8-8.7c0-1.9,0.6-3.8,1.8-5.3l15.3-20.4c2.9-3.9,8.4-4.6,12.3-1.8
	s4.6,8.4,1.8,12.3l-15.3,20.4C393,450.4,390.4,451.7,387.6,451.8z"/>
<path class="st1" d="M352.5,498.4c-4.8,0-8.7-3.9-8.8-8.7c0-1.9,0.6-3.8,1.8-5.3l15.3-20.4c2.9-3.9,8.4-4.7,12.2-1.8
	s4.7,8.4,1.8,12.2l0,0l-15.3,20.4C357.9,497.1,355.3,498.4,352.5,498.4z"/>
<path class="st1" d="M114,358.4c-4.8,0-8.7-3.9-8.8-8.7c0-1.9,0.6-3.8,1.8-5.3l15.3-20.4c2.9-3.9,8.4-4.7,12.2-1.8s4.7,8.4,1.8,12.2
	l0,0L121,354.9C119.4,357.1,116.8,358.4,114,358.4z"/>
<path class="st1" d="M78.9,405c-4.8,0-8.7-3.9-8.8-8.7c0-1.9,0.6-3.8,1.8-5.3l15.3-20.4c2.9-3.9,8.4-4.7,12.2-1.8s4.7,8.4,1.8,12.2
	l0,0l-15.3,20.4C84.2,403.8,81.6,405.1,78.9,405z"/>
<path class="st1" d="M43.8,451.8c-4.8,0-8.7-3.9-8.8-8.7c0-1.9,0.6-3.8,1.8-5.3l15.3-20.4c2.9-3.9,8.4-4.6,12.3-1.8
	s4.6,8.4,1.8,12.3l-15.3,20.4C49.2,450.4,46.6,451.7,43.8,451.8z"/>
<path class="st1" d="M8.7,498.4c-4.8,0-8.7-3.9-8.8-8.7c0-1.9,0.6-3.8,1.8-5.3L17,464.1c2.9-3.9,8.4-4.7,12.2-1.8s4.7,8.4,1.8,12.2
	l0,0L15.7,495C14.1,497.2,11.5,498.4,8.7,498.4z"/>
<path class="st1" d="M182.7,358.4c-4.8,0-8.7-3.9-8.8-8.7c0-1.9,0.6-3.8,1.8-5.3L191,324c2.9-3.9,8.4-4.7,12.2-1.8s4.7,8.4,1.8,12.2
	l0,0l-15.3,20.4C188.1,357.1,185.5,358.4,182.7,358.4z"/>
<path class="st1" d="M147.6,405c-4.8,0-8.7-3.9-8.8-8.7c0-1.9,0.6-3.8,1.8-5.3l15.4-20.3c2.9-3.9,8.4-4.6,12.3-1.7
	c3.9,2.9,4.6,8.4,1.7,12.3l0,0l-15.3,20.4C153,403.8,150.4,405.1,147.6,405z"/>
<path class="st1" d="M112.6,451.8c-4.8,0-8.7-3.9-8.8-8.7c0-1.9,0.6-3.8,1.8-5.3l15.3-20.4c2.9-3.9,8.4-4.6,12.3-1.8
	s4.6,8.4,1.8,12.3l-15.3,20.4C117.9,450.4,115.3,451.7,112.6,451.8z"/>
<path class="st1" d="M77.5,498.4c-4.8,0-8.7-3.9-8.8-8.7c0-1.9,0.6-3.8,1.8-5.3l15.3-20.4c2.9-3.9,8.4-4.7,12.2-1.8
	s4.7,8.4,1.8,12.2l0,0L84.5,495C82.8,497.2,80.2,498.4,77.5,498.4z"/>
<path class="st1" d="M389,358.4c-4.8,0-8.7-3.9-8.8-8.7c0-1.9,0.6-3.8,1.8-5.3l15.3-20.4c2.9-3.9,8.4-4.7,12.2-1.8s4.7,8.4,1.8,12.2
	l0,0L396,354.9C394.3,357.1,391.8,358.4,389,358.4z"/>
<path class="st1" d="M353.9,405c-4.8,0-8.7-3.9-8.8-8.7c0-1.9,0.6-3.8,1.8-5.3l15.3-20.4c2.9-3.9,8.4-4.7,12.2-1.8s4.7,8.4,1.8,12.2
	l-15.3,20.4C359.3,403.8,356.7,405.1,353.9,405z"/>
<path class="st1" d="M318.9,451.8c-4.8,0-8.7-3.9-8.8-8.7c0-1.9,0.6-3.8,1.8-5.3l15.3-20.4c2.9-3.9,8.4-4.6,12.3-1.8
	s4.6,8.4,1.8,12.3l-15.3,20.4C324.2,450.4,321.6,451.7,318.9,451.8z"/>
<path class="st1" d="M283.8,498.4c-4.8,0-8.7-3.9-8.8-8.7c0-1.9,0.6-3.8,1.8-5.3l15.3-20.4c2.9-3.9,8.4-4.7,12.2-1.8
	s4.7,8.4,1.8,12.2l0,0l-15.3,20.4C289.1,497.1,286.5,498.4,283.8,498.4z"/>
<path class="st2" d="M183.4,120.4c0-11.6,1.1-23.3,3.2-34.7c-27.5-8.4-57.2,2-73.5,25.6c-44.3-11.4-89.4,15.2-100.9,59.5
	s15.2,89.4,59.5,100.9c6.7,1.7,13.6,2.6,20.5,2.6h170.9C213.1,239,183.3,181.6,183.4,120.4z"/>
<path class="st1" d="M303.4,373.6l-6.6-6.6h9.3c4.8,0,8.6-3.9,8.6-8.6s-3.9-8.6-8.6-8.6h-9.3l6.6-6.6c3.4-3.4,3.4-8.8,0-12.2
	s-8.8-3.4-12.2,0l-6.6,6.6v-9.3c0-4.8-3.9-8.6-8.6-8.6c-4.8,0-8.6,3.9-8.6,8.6v9.3l-6.6-6.6c-3.4-3.4-8.8-3.4-12.2,0
	c-3.4,3.4-3.4,8.8,0,12.2l6.6,6.6h-9.3c-4.8,0-8.6,3.9-8.6,8.6s3.9,8.6,8.6,8.6h9.3l-6.6,6.6c-3.5,3.3-3.6,8.7-0.3,12.2
	c3.3,3.5,8.7,3.6,12.2,0.3c0.1-0.1,0.2-0.2,0.3-0.3l6.6-6.6v9.3c0,4.8,3.9,8.6,8.6,8.6c4.8,0,8.6-3.9,8.6-8.6v-9.3l6.6,6.6
	c3.5,3.3,8.9,3.1,12.2-0.3C306.6,382.2,306.6,377,303.4,373.6L303.4,373.6z"/>
<path class="st1" d="M232.3,447.9h-9.3l6.6-6.6c3.4-3.4,3.4-8.8,0-12.2c-3.4-3.4-8.8-3.4-12.2,0l-6.6,6.6v-9.3
	c0-4.8-3.9-8.6-8.6-8.6s-8.6,3.9-8.6,8.6c0,0,0,0,0,0v9.3l-6.6-6.6c-3.4-3.4-8.8-3.4-12.2,0c-3.4,3.4-3.4,8.8,0,12.2l6.6,6.6h-9.3
	c-4.8,0-8.6,3.9-8.6,8.6s3.9,8.6,8.6,8.6h9.3l-6.6,6.6c-3.5,3.3-3.6,8.7-0.3,12.2c3.3,3.5,8.7,3.6,12.2,0.3c0.1-0.1,0.2-0.2,0.3-0.3
	l6.6-6.6v9.3c0,4.8,3.9,8.6,8.6,8.6s8.6-3.9,8.6-8.6c0,0,0,0,0,0v-9.3l6.6,6.6c3.4,3.4,8.8,3.4,12.2,0c3.4-3.4,3.4-8.8,0-12.2l0,0
	l-6.6-6.6h9.3c4.8,0,8.6-3.9,8.6-8.6S237,447.9,232.3,447.9z"/>
</svg>
